<?xml version="1.0" encoding="utf-8"?>
<!-- Generator: Adobe Illustrator 24.2.3, SVG Export Plug-In . SVG Version: 6.00 Build 0)  -->
<svg version="1.1" id="Layer_1" xmlns="http://www.w3.org/2000/svg" xmlns:xlink="http://www.w3.org/1999/xlink" x="0px" y="0px"
	 viewBox="0 0 38.0999985 22.6000004" style="enable-background:new 0 0 38.0999985 22.6000004;" xml:space="preserve">
<g id="Layer_1_1_">
</g>
<g id="Layer_2_1_">
	<g>
		<path style="fill:#9322FF;" d="M6.5,14c-0.1242676,0-0.2426453-0.0252075-0.3503113-0.0707855
			s-0.2046204-0.1115265-0.2860413-0.1930084s-0.1473083-0.1784973-0.1928406-0.2862091s-0.0707092-0.22612-0.0707092-0.3503876
			s0.025177-0.2426758,0.0707092-0.3503876s0.1114197-0.2047272,0.1928406-0.2862091s0.1783752-0.1474304,0.2860413-0.1930084
			S6.3757324,12.1992188,6.5,12.1992188c0.4742432,0,0.9301147-0.1001282,1.3471603-0.2799606
			s0.7952652-0.4393692,1.1142044-0.7581863s0.578598-0.6969147,0.758522-1.1138687S10,9.1744385,10,8.7001953
			c0-0.1242676,0.025177-0.2426453,0.0707092-0.3503113s0.1114197-0.2046204,0.1928406-0.2860413
			s0.1783752-0.1473083,0.2860413-0.1928406s0.2260437-0.0707092,0.3503113-0.0707092s0.2426453,0.025177,0.3503113,0.0707092
			s0.2046204,0.1114197,0.2860413,0.1928406s0.1473083,0.1783752,0.1928406,0.2860413s0.0707092,0.2260437,0.0707092,0.3503113
			c0,0.7181396-0.1516724,1.4084473-0.4240723,2.0399551s-0.6655273,1.204216-1.1484375,1.6871567
			s-1.055603,0.8761139-1.6871338,1.1485519S7.2182617,14,6.5,14z"/>
	</g>
	<g>
		<path style="fill:#00ADE2;" d="M20.7001953,14.2001953c-0.1242676,0-0.2426453-0.0252075-0.3503113-0.0707855
			s-0.2046204-0.1115265-0.2860413-0.1930084s-0.1473083-0.1784973-0.1928406-0.2862091s-0.0707092-0.22612-0.0707092-0.3503876
			v-1.6499023V10V8.3500977V6.7001953c0-0.1242676,0.025177-0.2426453,0.0707092-0.3503113s0.1114197-0.2046204,0.1928406-0.2860413
			s0.1783752-0.1473083,0.2860413-0.1928406s0.2260437-0.0707092,0.3503113-0.0707092s0.2426758,0.025177,0.3503876,0.0707092
			s0.2047272,0.1114197,0.2862091,0.1928406s0.1474304,0.1783752,0.1930084,0.2860413s0.0707855,0.2260437,0.0707855,0.3503113
			v1.6499023V10v1.6499023v1.6499023c0,0.1242676-0.0252075,0.2426758-0.0707855,0.3503876
			s-0.1115265,0.2047272-0.1930084,0.2862091s-0.1784973,0.1474304-0.2862091,0.1930084
			S20.8244629,14.2001953,20.7001953,14.2001953z"/>
	</g>
	<g>
		<path style="fill:#FF9B24;" d="M35.0009766,14.2001953c-0.0742188,0-0.1480103-0.0091553-0.219635-0.0270691
			s-0.1410828-0.0445862-0.2066345-0.0796204s-0.1271973-0.0784302-0.183197-0.1297913s-0.1063538-0.1106873-0.1493225-0.1775818
			l-1.9250488-3.0001221l-1.9250488-3.0001221L28.467041,4.7857666l-1.9250488-3.0001221
			c-0.0671387-0.1044922-0.1098633-0.2176819-0.1296539-0.3328781s-0.0166473-0.232399,0.0079498-0.3449173
			s0.0706482-0.2203522,0.136673-0.3168106s0.1520233-0.1815414,0.2565155-0.248558
			c0.1049805-0.0675049,0.2184448-0.1103821,0.333786-0.1302032s0.2325592-0.0165863,0.345047,0.0081329
			s0.2202454,0.0709229,0.3166656,0.1370392s0.1815033,0.1521454,0.248642,0.2565155l1.9250488,2.9998779l1.9250488,2.9998779
			l1.9250488,2.9998779l1.9250488,2.9998779c0.0671387,0.1047363,0.1098633,0.2180786,0.1296539,0.333374
			s0.0166473,0.2325439-0.0079498,0.3450928s-0.0706482,0.2203979-0.136673,0.3168945s-0.1520233,0.1816406-0.2565155,0.2487793
			c-0.0375977,0.0239258-0.076355,0.0447998-0.1159363,0.0626526s-0.0799866,0.0326843-0.1208801,0.0445251
			s-0.0822754,0.0206909-0.1238098,0.0265808S35.0424805,14.2001953,35.0009766,14.2001953z"/>
	</g>
	<g>
		<path style="fill:#F95E19;" d="M27.2998047,11.7998047c-0.0512695,0-0.1026001-0.0043335-0.1533966-0.0130615
			s-0.101059-0.0218506-0.1501923-0.0394287s-0.0971375-0.0396118-0.1434174-0.0661621s-0.0908356-0.0576172-0.1330719-0.0932617
			c-0.0949707-0.0800781-0.1692505-0.1756287-0.222229-0.2798462s-0.0846558-0.2171021-0.0944214-0.3318481
			s0.0023804-0.2313538,0.0370483-0.3430176s0.0918579-0.2183838,0.1721802-0.3133545l1.75-2.0749512l1.75-2.0749512l1.75-2.0749512
			l1.75-2.0749512c0.0800781-0.0953369,0.1755981-0.1697693,0.2797699-0.2227859s0.2169952-0.0846176,0.3316803-0.0942917
			s0.2312317,0.0025787,0.3428497,0.0372696s0.2183075,0.0918198,0.3132782,0.1718979s0.1692505,0.1756287,0.222229,0.2798462
			s0.0846558,0.2171021,0.0944214,0.3318481s-0.0023804,0.2313538-0.0370483,0.3430176s-0.0918579,0.2183838-0.1721802,0.3133545
			l-1.75,2.0749512l-1.75,2.0749512l-1.75,2.0749512l-1.75,2.0749512c-0.0444336,0.0528564-0.0936279,0.0992737-0.1464233,0.1391678
			s-0.1091919,0.0732651-0.1680298,0.100029s-0.1201172,0.0469208-0.1826782,0.0603867S27.3637695,11.7998047,27.2998047,11.7998047
			z"/>
	</g>
	<g>
		<path style="fill:#517C60;" d="M24,14.2001953c-0.1242676,0-0.2426758-0.0252075-0.3503876-0.0707855
			s-0.2047272-0.1115265-0.2862091-0.1930084s-0.1474304-0.1784973-0.1930084-0.2862091s-0.0707855-0.22612-0.0707855-0.3503876
			v-1.1499023V11V9.8500977V8.7001953c0-0.1242676,0.0252075-0.2426453,0.0707855-0.3503113
			s0.1115265-0.2046204,0.1930084-0.2860413s0.1784973-0.1473083,0.2862091-0.1928406S23.8757324,7.800293,24,7.800293
			s0.2426758,0.025177,0.3503876,0.0707092s0.2047272,0.1114197,0.2862091,0.1928406s0.1474304,0.1783752,0.1930084,0.2860413
			s0.0707855,0.2260437,0.0707855,0.3503113v1.1499023V11v1.1499023v1.1499023c0,0.1242676-0.0252075,0.2426758-0.0707855,0.3503876
			s-0.1115265,0.2047272-0.1930084,0.2862091s-0.1784973,0.1474304-0.2862091,0.1930084S24.1242676,14.2001953,24,14.2001953z"/>
	</g>
	<g>
		<path style="fill:#6DBA00;" d="M24,2.3999023c-0.1242676,0-0.2426758-0.025177-0.3503876-0.0707092
			s-0.2047272-0.1114197-0.2862091-0.1928406s-0.1474304-0.1783752-0.1930084-0.2860413S23.0996094,1.6242676,23.0996094,1.5
			V1.4499512V1.3999023V1.3498535V1.2998047c0-0.1242676,0.0252075-0.2426453,0.0707855-0.3503113
			s0.1115265-0.2046204,0.1930084-0.2860413s0.1784973-0.1473083,0.2862091-0.1928406S23.8757324,0.3999023,24,0.3999023
			s0.2426758,0.025177,0.3503876,0.0707092s0.2047272,0.1114197,0.2862091,0.1928406s0.1474304,0.1783752,0.1930084,0.2860413
			s0.0707855,0.2260437,0.0707855,0.3503113v0.0500488v0.0500488v0.0500488V1.5
			c0,0.1242676-0.0252075,0.2426453-0.0707855,0.3503113s-0.1115265,0.2046204-0.1930084,0.2860413
			s-0.1784973,0.1473083-0.2862091,0.1928406S24.1242676,2.3999023,24,2.3999023z"/>
	</g>
	<g>
		<g>
			<path style="fill:#008CE2;" d="M13.8999023,9.6000977c-0.1242676,0-0.2426453-0.025177-0.3503113-0.0707092
				s-0.2046204-0.1114197-0.2860413-0.1928406s-0.1473083-0.1783752-0.1928406-0.2860413S13,8.8244629,13,8.7001953V7.4750977V6.25
				V5.0249023V3.7998047c0-0.1242676,0.025177-0.2426453,0.0707092-0.3503113s0.1114197-0.2046204,0.1928406-0.2860413
				s0.1783752-0.1473083,0.2860413-0.1928406s0.2260437-0.0707092,0.3503113-0.0707092s0.2426453,0.025177,0.3503113,0.0707092
				s0.2046204,0.1114197,0.2860413,0.1928406s0.1473083,0.1783752,0.1928406,0.2860413s0.0707092,0.2260437,0.0707092,0.3503113
				v1.2250977V6.25v1.2250977v1.2250977c0,0.1242676-0.025177,0.2426453-0.0707092,0.3503113
				s-0.1114197,0.2046204-0.1928406,0.2860413s-0.1783752,0.1473083-0.2860413,0.1928406S14.0241699,9.6000977,13.8999023,9.6000977
				z"/>
		</g>
		<g>
			<g>
				<path style="fill:#008CE2;" d="M20.7001953,7.6000977c-0.1242676,0-0.2426453-0.025177-0.3503113-0.0707092
					s-0.2046204-0.1114197-0.2860413-0.1928406s-0.1473083-0.1783752-0.1928406-0.2860413S19.800293,6.8244629,19.800293,6.7001953
					c0-0.2757568-0.0700989-0.5386658-0.1967926-0.777916s-0.3099823-0.4548416-0.5363617-0.6359634
					s-0.4958496-0.327774-0.7949066-0.4291458S17.6445313,4.699707,17.2998047,4.699707
					c-0.3446045,0-0.6731567,0.0560913-0.9721451,0.1574631s-0.5684128,0.248024-0.7947617,0.4291458
					s-0.4096222,0.3967133-0.5363083,0.6359634s-0.196785,0.5021591-0.196785,0.777916
					c0,0.1242676-0.025177,0.2426453-0.0707092,0.3503113s-0.1114197,0.2046204-0.1928406,0.2860413
					s-0.1783752,0.1473083-0.2860413,0.1928406s-0.2260437,0.0707092-0.3503113,0.0707092s-0.2426453-0.025177-0.3503113-0.0707092
					s-0.2046204-0.1114197-0.2860413-0.1928406s-0.1473083-0.1783752-0.1928406-0.2860413S13,6.8244629,13,6.7001953
					c0-0.5239258,0.1205444-1.023407,0.3384094-1.4779205s0.5330505-0.8640594,0.9223328-1.2081146
					s0.8526611-0.6226196,1.3669128-0.8151703s1.0793762-0.2990875,1.6721497-0.2990875s1.157959,0.1065369,1.6723022,0.2990875
					s0.9778442,0.4711151,1.3672485,0.8151703s0.7047119,0.7536011,0.9226685,1.2081146s0.338562,0.9539948,0.338562,1.4779205
					c0,0.1242676-0.0252075,0.2426453-0.0707855,0.3503113S21.4182739,7.255127,21.336792,7.3365479
					s-0.1784973,0.1473083-0.2862091,0.1928406S20.8244629,7.6000977,20.7001953,7.6000977z"/>
			</g>
		</g>
	</g>
	<g>
		<path style="fill:#10639B;" d="M13.8999023,14.2001953c-0.1242676,0-0.2426453-0.0252075-0.3503113-0.0707855
			s-0.2046204-0.1115265-0.2860413-0.1930084s-0.1473083-0.1784973-0.1928406-0.2862091S13,13.4240723,13,13.2998047v-1.1499023V11
			V9.8500977V8.7001953c0-0.1242676,0.025177-0.2426453,0.0707092-0.3503113s0.1114197-0.2046204,0.1928406-0.2860413
			s0.1783752-0.1473083,0.2860413-0.1928406s0.2260437-0.0707092,0.3503113-0.0707092s0.2426453,0.025177,0.3503113,0.0707092
			s0.2046204,0.1114197,0.2860413,0.1928406s0.1473083,0.1783752,0.1928406,0.2860413s0.0707092,0.2260437,0.0707092,0.3503113
			v1.1499023V11v1.1499023v1.1499023c0,0.1242676-0.025177,0.2426758-0.0707092,0.3503876s-0.1114197,0.2047272-0.1928406,0.2862091
			s-0.1783752,0.1474304-0.2860413,0.1930084S14.0241699,14.2001953,13.8999023,14.2001953z"/>
	</g>
	<g>
		<path style="fill:#6DBA00;" d="M24,9.6000977c-0.1242676,0-0.2426758-0.025177-0.3503876-0.0707092
			s-0.2047272-0.1114197-0.2862091-0.1928406s-0.1474304-0.1783752-0.1930084-0.2860413s-0.0707855-0.2260437-0.0707855-0.3503113
			V7.6751709V6.6501465V5.6251221V4.6000977c0-0.1242676,0.0252075-0.2426453,0.0707855-0.3503113
			s0.1115265-0.2046204,0.1930084-0.2860413s0.1784973-0.1473083,0.2862091-0.1928406S23.8757324,3.7001953,24,3.7001953
			s0.2426758,0.025177,0.3503876,0.0707092s0.2047272,0.1114197,0.2862091,0.1928406s0.1474304,0.1783752,0.1930084,0.2860413
			s0.0707855,0.2260437,0.0707855,0.3503113v1.0250244v1.0250244v1.0250244v1.0250244
			c0,0.1242676-0.0252075,0.2426453-0.0707855,0.3503113s-0.1115265,0.2046204-0.1930084,0.2860413
			s-0.1784973,0.1473083-0.2862091,0.1928406S24.1242676,9.6000977,24,9.6000977z"/>
	</g>
	<g>
		<path style="fill:#BA78F9;" d="M10.8999023,9.6000977c-0.1242676,0-0.2426453-0.025177-0.3503113-0.0707092
			s-0.2046204-0.1114197-0.2860413-0.1928406s-0.1473083-0.1783752-0.1928406-0.2860413S10,8.8244629,10,8.7001953
			c0-0.4743652-0.1001892-0.9303284-0.2801132-1.3474426S9.280304,6.557373,8.9613647,6.2384033
			S8.2642059,5.6597595,7.8471603,5.4798279S6.9742432,5.199707,6.5,5.199707c-0.1242676,0-0.2426453-0.025177-0.3503113-0.0707092
			S5.9450684,5.0175781,5.8636475,4.9361572S5.7163391,4.757782,5.6708069,4.650116S5.6000977,4.4240723,5.6000977,4.2998047
			s0.025177-0.2426453,0.0707092-0.3503113S5.7822266,3.744873,5.8636475,3.6634521s0.1783752-0.1473083,0.2860413-0.1928406
			S6.3757324,3.3999023,6.5,3.3999023c0.7182617,0,1.4086304,0.1517029,2.0401611,0.4241486
			s1.2042236,0.6656342,1.6871338,1.1486053s0.8760376,1.0557251,1.1484375,1.6873016s0.4240723,1.3219757,0.4240723,2.0402374
			c0,0.1242676-0.025177,0.2426453-0.0707092,0.3503113s-0.1114197,0.2046204-0.1928406,0.2860413
			s-0.1783752,0.1473083-0.2860413,0.1928406S11.0241699,9.6000977,10.8999023,9.6000977z"/>
	</g>
	<g>
		<path style="fill:#9322FF;" d="M2.1000977,9.6000977c-0.1242676,0-0.2426453-0.025177-0.3503113-0.0707092
			S1.545166,9.4179688,1.4637451,9.3365479S1.3164368,9.1581726,1.2709045,9.0505066S1.2001953,8.8244629,1.2001953,8.7001953
			c0-0.7182617,0.1516724-1.4086609,0.4240723-2.0402374s0.6655273-1.2043304,1.1484375-1.6873016
			s1.055603-0.8761597,1.6871338-1.1486053S5.7817383,3.3999023,6.5,3.3999023c0.1242676,0,0.2426453,0.025177,0.3503113,0.0707092
			s0.2046204,0.1114197,0.2860413,0.1928406s0.1473083,0.1783752,0.1928406,0.2860413s0.0707092,0.2260437,0.0707092,0.3503113
			S7.3747253,4.54245,7.3291931,4.650116S7.2177734,4.8547363,7.1363525,4.9361572S6.9579773,5.0834656,6.8503113,5.1289978
			S6.6242676,5.199707,6.5,5.199707c-0.4742432,0-0.9301147,0.1001892-1.3471603,0.2801208S4.3575745,5.9194336,4.0386353,6.2384033
			s-0.578598,0.6972351-0.758522,1.1143494S3,8.2258301,3,8.7001953c0,0.1242676-0.025177,0.2426453-0.0707092,0.3503113
			S2.8178711,9.255127,2.7364502,9.3365479S2.558075,9.4838562,2.4504089,9.5293884S2.2243652,9.6000977,2.1000977,9.6000977z"/>
	</g>
	<g>
		<path style="fill:#6F1472;" d="M6.5,14c-0.7182617,0-1.4086304-0.1517029-2.0401611-0.4241409
			s-1.2042236-0.6656113-1.6871338-1.1485519s-0.8760376-1.0556488-1.1484375-1.6871567S1.2001953,9.418335,1.2001953,8.7001953
			c0-0.1242676,0.025177-0.2426453,0.0707092-0.3503113s0.1114197-0.2046204,0.1928406-0.2860413
			s0.1783752-0.1473083,0.2860413-0.1928406S1.9758301,7.800293,2.1000977,7.800293S2.3427429,7.82547,2.4504089,7.8710022
			s0.2046204,0.1114197,0.2860413,0.1928406S2.8837585,8.242218,2.9292908,8.349884S3,8.5759277,3,8.7001953
			c0,0.4742432,0.1001892,0.9300537,0.2801132,1.3470078s0.4395828,0.7950516,0.758522,1.1138687
			s0.6971588,0.5783539,1.1142044,0.7581863S6.0257568,12.1992188,6.5,12.1992188
			c0.1242676,0,0.2426453,0.0252075,0.3503113,0.0707855s0.2046204,0.1115265,0.2860413,0.1930084
			s0.1473083,0.1784973,0.1928406,0.2862091s0.0707092,0.22612,0.0707092,0.3503876s-0.025177,0.2426758-0.0707092,0.3503876
			s-0.1114197,0.2047272-0.1928406,0.2862091s-0.1783752,0.1474304-0.2860413,0.1930084S6.6242676,14,6.5,14z"/>
	</g>
	<g style="enable-background:new    ;">
		<g>
			<path style="fill:#262626;" d="M3.0942383,20.1777344c-0.0462646,0-0.0917664-0.0021362-0.1365128-0.0064087
				s-0.0887375-0.0106812-0.1319809-0.0192261s-0.0857391-0.0192261-0.1274948-0.0320435s-0.0827713-0.027771-0.1230545-0.0448608
				s-0.0793762-0.0359497-0.1172867-0.0565491s-0.0746384-0.0429382-0.1101913-0.0669861s-0.069931-0.0498047-0.1031418-0.07724
				s-0.0652542-0.0565491-0.096138-0.0873108c-0.0307617-0.0307617-0.059845-0.0627441-0.0872345-0.095932
				s-0.0530853-0.0675812-0.0770721-0.1031647s-0.0462646-0.0723572-0.0668182-0.1103058s-0.0393829-0.0770721-0.0564728-0.1173553
				c-0.0172119-0.0402832-0.0322571-0.0812988-0.0451431-0.1230621s-0.023613-0.0842743-0.0321884-0.1275482
				s-0.0149994-0.0873108-0.0192795-0.1321259s-0.0064163-0.0904083-0.0064163-0.136795v-0.513916v-0.513916v-0.513916v-0.513916
				c0-0.0463867,0.0021362-0.09198,0.0064163-0.136795s0.010704-0.0888519,0.0192795-0.1321259
				s0.0193024-0.0857849,0.0321884-0.1275482s0.0279312-0.0827789,0.0451431-0.1230621
				c0.0170898-0.0402832,0.0359192-0.0793457,0.0564728-0.117218s0.0428314-0.0745544,0.0668182-0.1100769
				s0.0496826-0.0698853,0.0770721-0.1031189s0.0564728-0.0653381,0.0872345-0.096344
				c0.0308838-0.0307617,0.0629272-0.0598145,0.096138-0.0871582s0.0675888-0.0529785,0.1031418-0.0769043
				s0.0722809-0.0461426,0.1101913-0.0666504s0.0770035-0.0393066,0.1172867-0.0563965s0.0812988-0.0321045,0.1230545-0.0450134
				s0.0842514-0.0237122,0.1274948-0.0323792s0.0872345-0.0151978,0.1319809-0.0195618s0.0902481-0.0065613,0.1365128-0.0065613
				s0.0917969,0.0021973,0.1365891,0.0065613s0.0888443,0.0108948,0.1321487,0.0195618s0.0858612,0.0194702,0.1276627,0.0323792
				s0.0828476,0.0279236,0.1231308,0.0450134c0.0401611,0.0170898,0.079071,0.0358887,0.1167221,0.0563965
				s0.0740433,0.0427246,0.109169,0.0666504s0.068985,0.0495605,0.1015701,0.0769043s0.0638962,0.0563965,0.0939255,0.0871582
				c0.0299072,0.0310059,0.0583496,0.0631104,0.0853195,0.096344s0.0524673,0.0675964,0.0764847,0.1031189
				s0.0465546,0.0722046,0.0676041,0.1100769s0.0406113,0.0769348,0.0586777,0.117218
				c0.0179443,0.0402832,0.0336609,0.0812988,0.047142,0.1230621s0.0247269,0.0842743,0.0337296,0.1275482
				s0.0157623,0.0873108,0.0202713,0.1321259s0.0067673,0.0904083,0.0067673,0.136795v0.513916v0.513916v0.513916v0.513916
				c0,0.0463867-0.0022583,0.09198-0.0067673,0.136795s-0.0112686,0.0888519-0.0202713,0.1321259
				s-0.0202484,0.0857849-0.0337296,0.1275482s-0.0291977,0.0827789-0.047142,0.1230621
				c-0.0180664,0.0402832-0.0376282,0.0794067-0.0586777,0.1173553s-0.0435867,0.0747223-0.0676041,0.1103058
				s-0.0495148,0.0699768-0.0764847,0.1031647s-0.0554123,0.0651703-0.0853195,0.095932
				c-0.0300293,0.0307617-0.0613403,0.0598755-0.0939255,0.0873108s-0.0664444,0.0531921-0.1015701,0.07724
				s-0.0715179,0.0463867-0.109169,0.0669861s-0.076561,0.0394592-0.1167221,0.0565491
				c-0.0402832,0.0170898-0.0813293,0.0320435-0.1231308,0.0448608s-0.0843582,0.0234985-0.1276627,0.0320435
				s-0.0873566,0.0149536-0.1321487,0.0192261S3.1405029,20.1777344,3.0942383,20.1777344z M3.0942383,16.0654297
				c-0.0496826,0-0.0975342,0.0043945-0.1435623,0.0131836s-0.0902328,0.0219727-0.1326218,0.0395508
				s-0.082962,0.0395508-0.121727,0.065918s-0.0757217,0.0571289-0.110878,0.0922852s-0.0658875,0.0720825-0.0922089,0.1108093
				s-0.048233,0.0792542-0.0657501,0.1216125s-0.0306396,0.0865479-0.0393829,0.1325989S2.375,16.7353516,2.375,16.7851563v0.513916
				v0.513916v0.513916v0.513916c0,0.0498047,0.004364,0.0977783,0.0131073,0.1439209s0.0218658,0.0904541,0.0393829,0.1329346
				s0.0394287,0.0831299,0.0657501,0.1219482s0.0570526,0.0758057,0.0922089,0.1109619s0.072113,0.0658569,0.110878,0.0921326
				s0.0793381,0.0481262,0.121727,0.0655823s0.0865936,0.0305176,0.1326218,0.0392151s0.0938797,0.013031,0.1435623,0.013031
				s0.0975647-0.0043335,0.1436386-0.013031s0.0903397-0.021759,0.1327896-0.0392151s0.0830841-0.0393066,0.1218948-0.0655823
				s0.075798-0.0569763,0.1109543-0.0921326c0.0350342-0.0351563,0.0657043-0.0721436,0.0920029-0.1109619
				s0.0482254-0.0794678,0.065773-0.1219482s0.0307159-0.086792,0.0394974-0.1329346s0.013176-0.0941162,0.013176-0.1439209
				v-0.513916v-0.513916v-0.513916v-0.513916c0-0.0498047-0.0043945-0.0977173-0.013176-0.1437683
				s-0.0219498-0.0902405-0.0394974-0.1325989s-0.0394745-0.0828857-0.065773-0.1216125s-0.0569687-0.0756531-0.0920029-0.1108093
				c-0.0351563-0.0351563-0.0721436-0.065918-0.1109543-0.0922852s-0.0794449-0.0483398-0.1218948-0.065918
				s-0.0867157-0.0307617-0.1327896-0.0395508S3.1439209,16.0654297,3.0942383,16.0654297z"/>
		</g>
		<g>
			<path style="fill:#262626;" d="M6.0556641,22.234375c-0.0223389,0-0.0437012-0.0018311-0.0640869-0.0054932
				s-0.0397949-0.0091553-0.0582275-0.0164795s-0.0358887-0.0164795-0.0523682-0.0274658s-0.0319824-0.0238037-0.0465088-0.0384521
				c-0.0146484-0.0146484-0.0274353-0.0302124-0.0383759-0.0467072s-0.0200348-0.0339203-0.027298-0.0522919
				s-0.0126953-0.0376892-0.0163116-0.0579681s-0.0054169-0.0415192-0.0054169-0.063736v-1.5319824v-1.5319824V17.329834v-1.5319824
				c0-0.0222168,0.0018005-0.043457,0.0054169-0.063736s0.0090485-0.0395966,0.0163116-0.0579681
				s0.0163574-0.0357971,0.027298-0.0522919s0.0237274-0.0320587,0.0383759-0.0467072
				C5.848999,15.5625,5.864502,15.5496826,5.8809814,15.5386963s0.0339355-0.0201416,0.0523682-0.0274658
				s0.0378418-0.0128174,0.0582275-0.0164795s0.041748-0.0054932,0.0640869-0.0054932h0.256958h0.256958h0.256958h0.256958
				c0.0462646,0,0.0917664,0.0021973,0.1365128,0.0065613s0.0887375,0.0108948,0.1319809,0.0195618
				s0.0857391,0.0194702,0.1274948,0.0323792s0.0827713,0.0279236,0.1230545,0.0450134s0.0792847,0.0358887,0.1170044,0.0563965
				s0.0741577,0.0427246,0.109314,0.0666504s0.0690308,0.0495605,0.1016235,0.0769043s0.0639038,0.0563965,0.0939331,0.0871582
				c0.0299072,0.0310059,0.0583496,0.0631714,0.0853119,0.0964813s0.0524445,0.0677643,0.0764313,0.1033478
				s0.0464783,0.0722961,0.0674591,0.1101227s0.040451,0.076767,0.0583954,0.116806
				c0.0180664,0.0402832,0.033844,0.0813599,0.047348,0.1231995s0.0247345,0.0844421,0.0337067,0.1277771
				s0.015686,0.0874023,0.0201569,0.1321716s0.0066986,0.0902405,0.0066986,0.1363831v0.4934082v0.4934082v0.4934082v0.4934082
				c0,0.0463867-0.0022278,0.09198-0.0066986,0.136795s-0.0111847,0.0888519-0.0201569,0.1321259
				s-0.0202026,0.0857849-0.0337067,0.1275482s-0.0292816,0.0827789-0.047348,0.1230621
				c-0.0179443,0.0402832-0.0374146,0.0794067-0.0583954,0.1173553s-0.0434723,0.0747223-0.0674591,0.1103058
				s-0.049469,0.0699768-0.0764313,0.1031647s-0.0554047,0.0651703-0.0853119,0.095932
				c-0.0300293,0.0307617-0.0613403,0.0598755-0.0939331,0.0873108s-0.0664673,0.0531921-0.1016235,0.07724
				s-0.0715942,0.0463867-0.109314,0.0669861s-0.0767212,0.0394592-0.1170044,0.0565491s-0.0812988,0.0320435-0.1230545,0.0448608
				s-0.0842514,0.0234985-0.1274948,0.0320435s-0.0872345,0.0149536-0.1319809,0.0192261s-0.0902481,0.0064087-0.1365128,0.0064087
				H6.9035645H6.7236328H6.5437012H6.3637695v0.4472656V21.03125v0.4472656v0.4472656
				c0,0.0222168-0.0019226,0.043457-0.0057678,0.063736s-0.009613,0.0395966-0.0173035,0.0579681
				s-0.0173035,0.0357971-0.0288391,0.0522919s-0.0249939,0.0320587-0.0403748,0.0467072
				c-0.0155029,0.0146484-0.0316162,0.0274658-0.0483475,0.0384521s-0.0340805,0.0201416-0.0520554,0.0274658
				s-0.0365753,0.0128174-0.055809,0.0164795S6.0761719,22.234375,6.0556641,22.234375z M7.8032227,16.8261719
				c0-0.0495605-0.0043945-0.0973511-0.0131836-0.1433563s-0.0219727-0.0902252-0.0395508-0.1326447
				s-0.0395508-0.0830383-0.065918-0.1218414s-0.0571289-0.0757904-0.0922852-0.1109467s-0.072113-0.065918-0.110878-0.0922852
				s-0.0793381-0.0483398-0.121727-0.065918s-0.0865936-0.0307617-0.1326218-0.0395508s-0.0938797-0.0131836-0.1435623-0.0131836
				H6.9035645H6.7236328H6.5437012H6.3637695v0.8532715v0.8532715v0.8532715v0.8532715h0.1799316h0.1799316h0.1799316h0.1799316
				c0.0496826,0,0.0975342-0.0043945,0.1435623-0.0131836s0.0902328-0.0219727,0.1326218-0.0395508
				s0.082962-0.0395508,0.121727-0.065918s0.0757217-0.0571289,0.110878-0.0922852
				c0.0351563-0.0349121,0.065918-0.0717163,0.0922852-0.1103973s0.0483398-0.0792389,0.065918-0.1216583
				s0.0307617-0.0867004,0.0395508-0.1328278s0.0131836-0.094101,0.0131836-0.1439056v-0.4934082v-0.4934082v-0.4934082V16.8261719z
				"/>
		</g>
		<g>
			<path style="fill:#262626;" d="M10.4350586,20.0751953c-0.0634766-0.0256348-0.1235962-0.0550537-0.1803741-0.0882416
				s-0.1102142-0.0701447-0.1603241-0.1108551s-0.0968933-0.0851746-0.1403656-0.1333771s-0.0836334-0.1001434-0.1204987-0.1558075
				s-0.0691223-0.1129761-0.0967712-0.1719208s-0.0506897-0.1195221-0.0691223-0.1817169s-0.0322571-0.1260071-0.0414734-0.1914215
				s-0.0138245-0.132431-0.0138245-0.2010345v-0.513916v-0.513916v-0.513916v-0.513916
				c0-0.0463867,0.0021362-0.09198,0.0064163-0.136795s0.010704-0.0888519,0.0192795-0.1321259
				s0.0193024-0.0857849,0.0321884-0.1275482s0.0279312-0.0827789,0.0451431-0.1230621
				c0.0170898-0.0402832,0.0359192-0.0793457,0.0564728-0.117218s0.0428314-0.0745544,0.0668182-0.1100769
				s0.0496826-0.0698853,0.0770721-0.1031189s0.0564728-0.0653381,0.0872345-0.096344
				c0.0308838-0.0307617,0.0629272-0.0598145,0.096138-0.0871582s0.0675888-0.0529785,0.1031418-0.0769043
				s0.0722809-0.0461426,0.1101913-0.0666504s0.0770035-0.0393066,0.1172867-0.0563965s0.0812988-0.0321045,0.1230545-0.0450134
				s0.0842514-0.0237122,0.1274948-0.0323792s0.0872345-0.0151978,0.1319809-0.0195618s0.0902481-0.0065613,0.1365128-0.0065613
				s0.0917969,0.0021973,0.1365891,0.0065613s0.0888443,0.0108948,0.1321487,0.0195618s0.0858612,0.0194702,0.1276627,0.0323792
				s0.0828476,0.0279236,0.1231308,0.0450134c0.0401611,0.0170898,0.0791931,0.0358887,0.1170807,0.0563965
				s0.0746307,0.0427246,0.1102142,0.0666504s0.0700073,0.0495605,0.1032562,0.0769043s0.0653229,0.0563965,0.0962067,0.0871582
				c0.0307617,0.0310059,0.059845,0.0631104,0.0872345,0.096344s0.0530853,0.0675964,0.0770721,0.1031189
				s0.0462646,0.0722046,0.0668182,0.1100769s0.0393829,0.0769348,0.0564728,0.117218s0.032074,0.0812988,0.0449371,0.1230621
				s0.0236053,0.0842743,0.0322113,0.1275482s0.0150757,0.0873108,0.0193939,0.1321259s0.006485,0.0904083,0.006485,0.136795
				v0.2570801v0.2570801v0.2570801v0.2570801c0,0.0222168-0.0018311,0.043457-0.0054855,0.063736
				s-0.0091324,0.0395966-0.0164261,0.0579681s-0.0164032,0.0357971-0.0273209,0.0522919s-0.0236435,0.0320587-0.0381699,0.0467072
				c-0.0146484,0.0146484-0.0302429,0.0274658-0.0467834,0.0384521s-0.0340271,0.0201416-0.0524597,0.0274658
				s-0.0378113,0.0128174-0.058136,0.0164795s-0.0415955,0.0054932-0.0638123,0.0054932h-0.4368896h-0.4368896h-0.4368896
				h-0.4368896v0.1796875v0.1796875v0.1796875v0.1796875c0,0.0361328,0.0024414,0.0715942,0.0073395,0.1063843
				s0.0122528,0.0689087,0.0220795,0.102356s0.0221252,0.0662231,0.036911,0.0983276s0.0320587,0.0635376,0.0518341,0.0942993
				c0.0196533,0.0307617,0.0411377,0.0594482,0.0644531,0.0860291s0.0484619,0.0510559,0.0754395,0.0733948
				s0.0557861,0.0425415,0.0864258,0.0605774s0.0631104,0.033905,0.0974121,0.0475769s0.0686951,0.0247803,0.1031876,0.0333252
				s0.0690842,0.0145264,0.1037827,0.0179443s0.0695038,0.0042725,0.1044235,0.0025635s0.0699539-0.0059814,0.1051102-0.0128174
				c0.0350342-0.0068359,0.0689392-0.0160522,0.1016922-0.0276337s0.0643539-0.025528,0.09478-0.0418243
				s0.0596771-0.0349426,0.0877304-0.0559235s0.0549088-0.0442963,0.0805435-0.069931
				c0.0153809-0.0153809,0.0315247-0.0288696,0.0484314-0.040451s0.0345764-0.0212555,0.053009-0.029007
				s0.0376282-0.0135803,0.0575867-0.0174713s0.0406799-0.0058441,0.0621643-0.0058441
				c0.0213623,0,0.0419922,0.0019531,0.0618896,0.0058441s0.0390625,0.0097198,0.0574951,0.0174713
				s0.0361328,0.0174255,0.0531006,0.029007s0.0332031,0.0250702,0.0487061,0.040451
				c0.0153809,0.0136719,0.0288391,0.0283203,0.0403748,0.0439453s0.0211487,0.0322266,0.0288391,0.0498047
				s0.0134583,0.0361328,0.0173035,0.0556641s0.0057678,0.0400391,0.0057678,0.0615234
				c0,0.0212402-0.0019226,0.0418091-0.0057678,0.061676s-0.009613,0.039032-0.0173035,0.0574646
				s-0.0173035,0.0361328-0.0288391,0.0530701s-0.0249939,0.0331116-0.0403748,0.0484924
				c-0.0480957,0.0480957-0.0983887,0.0917358-0.1509018,0.1309509s-0.1072464,0.0740051-0.1642227,0.1044006
				s-0.1161957,0.0563965-0.177681,0.0780334s-0.1252365,0.0389099-0.1912766,0.0518494
				c-0.065918,0.0126953-0.1315308,0.0206299-0.1968307,0.0237885s-0.1302872,0.0015411-0.1949539-0.0048676
				s-0.1290131-0.0176086-0.1930313-0.0336151S10.4984131,20.1008301,10.4350586,20.0751953z M10.9487305,16.0654297
				c-0.0496826,0-0.0975342,0.0043945-0.1435623,0.0131836s-0.0902328,0.0219727-0.1326218,0.0395508
				s-0.082962,0.0395508-0.121727,0.065918s-0.0757217,0.0571289-0.110878,0.0922852s-0.0658875,0.0720825-0.0922089,0.1108093
				s-0.048233,0.0792542-0.0657501,0.1216125s-0.0306396,0.0865479-0.0393829,0.1325989s-0.0131073,0.0939636-0.0131073,0.1437683
				v0.1799316v0.1799316v0.1799316v0.1799316h0.3597412h0.3597412h0.3597412h0.3597412v-0.1799316v-0.1799316v-0.1799316v-0.1799316
				c0-0.0498047-0.0043945-0.0977173-0.013176-0.1437683s-0.0219498-0.0902405-0.0394974-0.1325989
				s-0.0394745-0.0828857-0.065773-0.1216125s-0.0569687-0.0756531-0.0920029-0.1108093
				c-0.0351563-0.0351563-0.0721436-0.065918-0.1109543-0.0922852s-0.0794449-0.0483398-0.1218948-0.065918
				s-0.0867157-0.0307617-0.1327896-0.0395508S10.9984131,16.0654297,10.9487305,16.0654297z"/>
		</g>
		<g>
			<path style="fill:#262626;" d="M13.8276367,20.1777344c-0.0223389,0-0.0437012-0.0018311-0.0640869-0.0054779
				s-0.0397949-0.0091095-0.0582275-0.0163727s-0.0358887-0.0163269-0.0523682-0.0271759s-0.0319824-0.0234833-0.0465088-0.0378876
				c-0.0146484-0.0146484-0.0274353-0.0302124-0.0383759-0.0467224s-0.0200348-0.0339661-0.027298-0.0523987
				s-0.0126953-0.0378418-0.0163116-0.0582581s-0.0054169-0.0418396-0.0054169-0.0643005v-1.0178223v-1.0178223v-1.0178223
				v-1.0178223c0-0.0222168,0.0018005-0.043457,0.0054169-0.063736s0.0090485-0.0395966,0.0163116-0.0579681
				s0.0163574-0.0357971,0.027298-0.0522919s0.0237274-0.0320587,0.0383759-0.0467072
				c0.0145264-0.0146484,0.0300293-0.0274658,0.0465088-0.0384521s0.0339355-0.0201416,0.0523682-0.0274658
				s0.0378418-0.0128174,0.0582275-0.0164795s0.041748-0.0054932,0.0640869-0.0054932h0.256958h0.256958h0.256958h0.256958
				c0.0462646,0,0.0917664,0.0021973,0.1365128,0.0065613s0.0887375,0.0108948,0.1319809,0.0195618
				s0.0857391,0.0194702,0.1274948,0.0323792s0.0827713,0.0279236,0.1230545,0.0450134s0.0792847,0.0358887,0.1170044,0.0563965
				s0.0741577,0.0427246,0.109314,0.0666504s0.0690308,0.0495605,0.1016235,0.0769043s0.0639038,0.0563965,0.0939331,0.0871582
				c0.0299072,0.0310059,0.0583496,0.0631714,0.0853119,0.0964813s0.0524445,0.0677643,0.0764313,0.1033478
				s0.0464783,0.0722961,0.0674591,0.1101227s0.040451,0.076767,0.0583954,0.116806
				c0.0180664,0.0402832,0.033844,0.0813599,0.047348,0.1231995s0.0247345,0.0844421,0.0337067,0.1277771
				s0.015686,0.0874023,0.0201569,0.1321716s0.0066986,0.0902405,0.0066986,0.1363831v0.7607422v0.7607422v0.7607422v0.7607422
				c0,0.0224609-0.0019226,0.0438843-0.0057678,0.0643005s-0.009613,0.0398254-0.0173035,0.0582581
				s-0.0173035,0.0358887-0.0288391,0.0523987s-0.0249939,0.032074-0.0403748,0.0467224
				c-0.0155029,0.0144043-0.0316162,0.0270386-0.0483475,0.0378876s-0.0340805,0.0199127-0.0520554,0.0271759
				s-0.0365753,0.0127258-0.055809,0.0163727s-0.0391006,0.0054779-0.0596085,0.0054779
				c-0.0223389,0-0.0437012-0.0018311-0.0640869-0.0054779s-0.0397949-0.0091095-0.0582275-0.0163727
				s-0.0358887-0.0163269-0.0523682-0.0271759s-0.0319824-0.0234833-0.0465088-0.0378876
				c-0.0145264-0.0146484-0.0272522-0.0302124-0.0381699-0.0467224s-0.0200272-0.0339661-0.0273209-0.0523987
				s-0.0127716-0.0378418-0.0164261-0.0582581s-0.0054855-0.0418396-0.0054855-0.0643005v-0.7607422v-0.7607422v-0.7607422
				v-0.7607422c0-0.0495605-0.0043945-0.0973511-0.0131836-0.1433563s-0.0219727-0.0902252-0.0395508-0.1326447
				s-0.0395508-0.0830383-0.065918-0.1218414s-0.0571289-0.0757904-0.0922852-0.1109467s-0.072113-0.065918-0.110878-0.0922852
				s-0.0793381-0.0483398-0.121727-0.065918s-0.0865936-0.0307617-0.1326218-0.0395508s-0.0938797-0.0131836-0.1435623-0.0131836
				h-0.1799316h-0.1799316h-0.1799316h-0.1799316v0.9406738v0.9406738v0.9406738v0.9406738
				c0,0.0224609-0.0019226,0.0438843-0.0057678,0.0643005s-0.009613,0.0398254-0.0173035,0.0582581
				s-0.0173035,0.0358887-0.0288391,0.0523987s-0.0249939,0.032074-0.0403748,0.0467224
				c-0.0155029,0.0144043-0.0316162,0.0270386-0.0483475,0.0378876s-0.0340805,0.0199127-0.0520554,0.0271759
				s-0.0365753,0.0127258-0.055809,0.0163727S13.8481445,20.1777344,13.8276367,20.1777344z"/>
		</g>
	</g>
	<g style="enable-background:new    ;">
	</g>
	<g style="enable-background:new    ;">
		<g>
			<path style="fill:#262626;" d="M19.5419922,20.0751953c-0.0634766-0.0256348-0.1235962-0.0550537-0.1803741-0.0882416
				s-0.1102142-0.0701447-0.1603241-0.1108551s-0.0968933-0.0851746-0.1403656-0.1333771s-0.0836334-0.1001434-0.1204987-0.1558075
				s-0.0691223-0.1129761-0.0967712-0.1719208s-0.0506897-0.1195221-0.0691223-0.1817169s-0.0322571-0.1260071-0.0414734-0.1914215
				s-0.0138245-0.132431-0.0138245-0.2010345v-0.513916v-0.513916v-0.513916v-0.513916
				c0-0.0463867,0.0021362-0.09198,0.0064163-0.136795s0.010704-0.0888519,0.0192795-0.1321259
				s0.0193024-0.0857849,0.0321884-0.1275482s0.0279312-0.0827789,0.0451431-0.1230621
				c0.0170898-0.0402832,0.0359192-0.0793457,0.0564728-0.117218s0.0428314-0.0745544,0.0668182-0.1100769
				s0.0496826-0.0698853,0.0770721-0.1031189s0.0564728-0.0653381,0.0872345-0.096344
				c0.0308838-0.0307617,0.0629272-0.0598145,0.096138-0.0871582s0.0675888-0.0529785,0.1031418-0.0769043
				s0.0722809-0.0461426,0.1101913-0.0666504s0.0770035-0.0393066,0.1172867-0.0563965s0.0812988-0.0321045,0.1230545-0.0450134
				s0.0842514-0.0237122,0.1274948-0.0323792s0.0872345-0.0151978,0.1319809-0.0195618s0.0902481-0.0065613,0.1365128-0.0065613
				c0.0463867,0,0.09198,0.0021973,0.136795,0.0065613s0.0888519,0.0108948,0.1321259,0.0195618
				s0.0857849,0.0194702,0.1275482,0.0323792s0.0827789,0.0279236,0.1230621,0.0450134s0.0793457,0.0358887,0.117218,0.0563965
				s0.0745544,0.0427246,0.1100769,0.0666504s0.0698853,0.0495605,0.1031189,0.0769043s0.0653381,0.0563965,0.096344,0.0871582
				c0.0307617,0.0310059,0.0598145,0.0631104,0.0871735,0.096344s0.0530243,0.0675964,0.0770111,0.1031189
				s0.0462952,0.0722046,0.0669403,0.1100769s0.0396271,0.0769348,0.0569611,0.117218
				c0.0170898,0.0402832,0.0320435,0.0812988,0.0448608,0.1230621s0.0234985,0.0842743,0.0320435,0.1275482
				s0.0149536,0.0873108,0.0192261,0.1321259s0.0064087,0.0904083,0.0064087,0.136795v0.2570801v0.2570801v0.2570801v0.2570801
				c0,0.0222168-0.0018311,0.043457-0.0054932,0.063736s-0.0091553,0.0395966-0.0164795,0.0579681
				s-0.0164795,0.0357971-0.0274658,0.0522919s-0.0238037,0.0320587-0.0384521,0.0467072
				c-0.0144043,0.0146484-0.0298462,0.0274658-0.0462952,0.0384521s-0.033905,0.0201416-0.0523376,0.0274658
				s-0.0378418,0.0128174-0.058197,0.0164795s-0.0416565,0.0054932-0.0638733,0.0054932h-0.4368896h-0.4368896h-0.4368896
				h-0.4368896v0.1796875v0.1796875v0.1796875v0.1796875c0,0.0361328,0.0024414,0.0715942,0.0073395,0.1063843
				s0.0122528,0.0689087,0.0220795,0.102356s0.0221252,0.0662231,0.036911,0.0983276s0.0320587,0.0635376,0.0518341,0.0942993
				c0.0196533,0.0307617,0.0411377,0.0594482,0.0644531,0.0860291s0.0484619,0.0510559,0.0754395,0.0733948
				s0.0557861,0.0425415,0.0864258,0.0605774s0.0631104,0.033905,0.0974121,0.0475769s0.0687256,0.0247803,0.1032486,0.0333252
				s0.0691452,0.0145264,0.1038437,0.0179443s0.0694733,0.0042725,0.1043015,0.0025635s0.0697098-0.0059814,0.1046219-0.0128174
				c0.0351563-0.0068359,0.0691528-0.0160522,0.1019745-0.0276337s0.0644684-0.025528,0.0949249-0.0418243
				s0.0597229-0.0349426,0.0877838-0.0559235s0.0549164-0.0442963,0.0805511-0.069931
				c0.0153809-0.0153809,0.0315552-0.0288696,0.0484924-0.040451s0.0346375-0.0212555,0.0530701-0.029007
				s0.0375977-0.0135803,0.0574646-0.0174713s0.0404358-0.0058441,0.061676-0.0058441
				c0.0214844,0,0.0422363,0.0019531,0.0622406,0.0058441s0.0392609,0.0097198,0.0577545,0.0174713
				s0.0362244,0.0174255,0.0531769,0.029007s0.0331268,0.0250702,0.0485077,0.040451
				c0.0153809,0.0136719,0.0288696,0.0283203,0.040451,0.0439453s0.0212555,0.0322266,0.029007,0.0498047
				s0.0135803,0.0361328,0.0174713,0.0556641s0.0058441,0.0400391,0.0058441,0.0615234
				c0,0.0212402-0.0019531,0.0418091-0.0058441,0.061676s-0.0097198,0.039032-0.0174713,0.0574646
				s-0.0174255,0.0361328-0.029007,0.0530701s-0.0250702,0.0331116-0.040451,0.0484924
				c-0.0480957,0.0480957-0.0983887,0.0917358-0.1508942,0.1309509s-0.1072235,0.0740051-0.1641693,0.1044006
				s-0.1161194,0.0563965-0.177536,0.0780334s-0.1250763,0.0389099-0.1909943,0.0518494
				c-0.065918,0.0126953-0.1315613,0.0206299-0.196907,0.0237885s-0.130394,0.0015411-0.1951218-0.0048676
				s-0.1291351-0.0176086-0.1931992-0.0336151S19.6053467,20.1008301,19.5419922,20.0751953z M20.0556641,16.0654297
				c-0.0496826,0-0.0975342,0.0043945-0.1435623,0.0131836s-0.0902328,0.0219727-0.1326218,0.0395508
				s-0.082962,0.0395508-0.121727,0.065918s-0.0757217,0.0571289-0.110878,0.0922852s-0.0658875,0.0720825-0.0922089,0.1108093
				s-0.048233,0.0792542-0.0657501,0.1216125s-0.0306396,0.0865479-0.0393829,0.1325989s-0.0131073,0.0939636-0.0131073,0.1437683
				v0.1799316v0.1799316v0.1799316v0.1799316h0.3597412h0.3597412h0.3597412h0.3597412v-0.1799316v-0.1799316v-0.1799316v-0.1799316
				c0-0.0498047-0.0043945-0.0977173-0.0131836-0.1437683s-0.0219727-0.0902405-0.0395508-0.1325989
				s-0.0395508-0.0828857-0.065918-0.1216125s-0.0571289-0.0756531-0.0922852-0.1108093s-0.0720825-0.065918-0.1108093-0.0922852
				s-0.0792542-0.0483398-0.1216125-0.065918s-0.0865479-0.0307617-0.1325989-0.0395508
				S20.1054688,16.0654297,20.0556641,16.0654297z"/>
		</g>
		<g>
			<path style="fill:#262626;" d="M22.9345703,22.234375c-0.0224609,0-0.0438843-0.0018311-0.0643005-0.0054932
				s-0.0398254-0.0091553-0.0582581-0.0164795s-0.0358887-0.0164795-0.0523987-0.0274658s-0.032074-0.0238037-0.0467224-0.0384521
				c-0.0144043-0.0146484-0.0270386-0.0302124-0.0378876-0.0467072s-0.0199127-0.0339203-0.0271759-0.0522919
				s-0.0127258-0.0376892-0.0163727-0.0579681s-0.0054779-0.0415192-0.0054779-0.063736v-1.5319824v-1.5319824V17.329834v-1.5319824
				c0-0.0222168,0.0018311-0.043457,0.0054779-0.063736s0.0091095-0.0395966,0.0163727-0.0579681
				s0.0163269-0.0357971,0.0271759-0.0522919s0.0234833-0.0320587,0.0378876-0.0467072
				c0.0146484-0.0146484,0.0302124-0.0274658,0.0467224-0.0384521s0.0339661-0.0201416,0.0523987-0.0274658
				s0.0378418-0.0128174,0.0582581-0.0164795s0.0418396-0.0054932,0.0643005-0.0054932h0.2570801h0.2570801h0.2570801h0.2570801
				c0.0461426,0,0.0915527,0.0021973,0.1362305,0.0065613s0.088623,0.0108948,0.1318359,0.0195618
				s0.0856934,0.0194702,0.1274414,0.0323792s0.0827637,0.0279236,0.1230469,0.0450134s0.0792847,0.0358887,0.1170044,0.0563965
				s0.0741577,0.0427246,0.109314,0.0666504s0.0690308,0.0495605,0.1016235,0.0769043s0.0639038,0.0563965,0.0939331,0.0871582
				c0.0300293,0.0310059,0.0585327,0.0631714,0.0855255,0.0964813s0.052475,0.0677643,0.0764618,0.1033478
				s0.0464783,0.0722961,0.0674896,0.1101227s0.0405426,0.076767,0.058609,0.116806
				c0.0178223,0.0402832,0.0334473,0.0813599,0.0468597,0.1231995s0.0246124,0.0844421,0.0335846,0.1277771
				s0.0157166,0.0874023,0.0202179,0.1321716s0.0067596,0.0902405,0.0067596,0.1363831v0.4934082v0.4934082v0.4934082v0.4934082
				c0,0.0463867-0.0022583,0.09198-0.0067596,0.136795s-0.0112457,0.0888519-0.0202179,0.1321259
				s-0.0201721,0.0857849-0.0335846,0.1275482s-0.0290375,0.0827789-0.0468597,0.1230621
				c-0.0180664,0.0402832-0.0375977,0.0794067-0.058609,0.1173553s-0.0435028,0.0747223-0.0674896,0.1103058
				s-0.049469,0.0699768-0.0764618,0.1031647s-0.0554962,0.0651703-0.0855255,0.095932s-0.0613403,0.0598755-0.0939331,0.0873108
				s-0.0664673,0.0531921-0.1016235,0.07724s-0.0715942,0.0463867-0.109314,0.0669861s-0.0767212,0.0394592-0.1170044,0.0565491
				s-0.0812988,0.0320435-0.1230469,0.0448608s-0.0842285,0.0234985-0.1274414,0.0320435s-0.0871582,0.0149536-0.1318359,0.0192261
				s-0.0900879,0.0064087-0.1362305,0.0064087H23.782959h-0.1799316h-0.1799316h-0.1799316v0.4472656V21.03125v0.4472656v0.4472656
				c0,0.0222168-0.0019531,0.043457-0.0058441,0.063736s-0.0097198,0.0395966-0.0174713,0.0579681
				s-0.0174255,0.0357971-0.029007,0.0522919s-0.0250702,0.0320587-0.040451,0.0467072s-0.0314331,0.0274658-0.0481415,0.0384521
				s-0.0340729,0.0201416-0.0520782,0.0274658s-0.0366516,0.0128174-0.0559235,0.0164795S22.9550781,22.234375,22.9345703,22.234375
				z M24.6816406,16.8261719c0-0.0495605-0.0043945-0.0973511-0.0131683-0.1433563s-0.0219269-0.0902252-0.039444-0.1326447
				s-0.0393982-0.0830383-0.0656281-0.1218414s-0.0568085-0.0757904-0.0917206-0.1109467
				c-0.0351563-0.0351563-0.0721436-0.065918-0.1109467-0.0922852s-0.079422-0.0483398-0.1218414-0.065918
				s-0.0866394-0.0307617-0.1326447-0.0395508s-0.0937958-0.0131836-0.1433563-0.0131836H23.782959h-0.1799316h-0.1799316
				h-0.1799316v0.8532715v0.8532715v0.8532715v0.8532715h0.1799316h0.1799316h0.1799316h0.1799316
				c0.0495605,0,0.0973511-0.0043945,0.1433563-0.0131836s0.0902252-0.0219727,0.1326447-0.0395508
				s0.0830383-0.0395508,0.1218414-0.065918s0.0757904-0.0571289,0.1109467-0.0922852
				c0.0349121-0.0349121,0.0654907-0.0717163,0.0917206-0.1103973s0.048111-0.0792389,0.0656281-0.1216583
				s0.0306702-0.0867004,0.039444-0.1328278s0.0131683-0.094101,0.0131683-0.1439056v-0.4934082v-0.4934082v-0.4934082V16.8261719z"
				/>
		</g>
		<g>
			<path style="fill:#262626;" d="M26.9238281,20.1777344c-0.0205078,0-0.0404053-0.0018311-0.0596771-0.0054779
				s-0.0379181-0.0091095-0.0559235-0.0163727s-0.0353699-0.0163269-0.0520782-0.0271759s-0.0327606-0.0234833-0.0481415-0.0378876
				c-0.0153809-0.0146484-0.0288696-0.0302124-0.040451-0.0467224s-0.0212555-0.0339661-0.029007-0.0523987
				s-0.0135803-0.0378418-0.0174713-0.0582581s-0.0058441-0.0418396-0.0058441-0.0643005v-1.5419922v-1.5419922v-1.5419922
				v-1.5419922c0-0.0224609,0.0019531-0.0438843,0.0058441-0.0643005s0.0097198-0.0398254,0.0174713-0.0582581
				s0.0174255-0.0358887,0.029007-0.0523987s0.0250702-0.032074,0.040451-0.0467224
				c0.0153809-0.0144043,0.0314331-0.0270386,0.0481415-0.0378876s0.0340729-0.0199127,0.0520782-0.0271759
				s0.0366516-0.0127258,0.0559235-0.0163727s0.0391693-0.0054779,0.0596771-0.0054779
				c0.0222168,0,0.043457,0.0018311,0.063736,0.0054779s0.0395966,0.0091095,0.0579681,0.0163727
				s0.0357971,0.0163269,0.0522919,0.0271759s0.0320587,0.0234833,0.0467072,0.0378876
				c0.0146484,0.0146484,0.0274658,0.0302124,0.0384521,0.0467224s0.0201416,0.0339661,0.0274658,0.0523987
				s0.0128174,0.0378418,0.0164795,0.0582581s0.0054932,0.0418396,0.0054932,0.0643005v0.4470215v0.4470215v0.4470215v0.4470215
				h0.1799316h0.1799316h0.1799316h0.1799316c0.0461426,0,0.0915527,0.0021973,0.1362305,0.0065613
				s0.088623,0.0108948,0.1318359,0.0195618s0.0856934,0.0194702,0.1274414,0.0323792s0.0827637,0.0279236,0.1230469,0.0450134
				s0.0794067,0.0358887,0.1173553,0.0563965s0.0747223,0.0427246,0.1103058,0.0666504s0.0699768,0.0495605,0.1031647,0.0769043
				s0.0651703,0.0563965,0.095932,0.0871582c0.0307617,0.0310059,0.0598755,0.0631714,0.0873108,0.0964813
				s0.0531921,0.0677643,0.07724,0.1033478s0.0463867,0.0722961,0.0669861,0.1101227s0.0394592,0.076767,0.0565491,0.116806
				c0.0170898,0.0402832,0.0320435,0.0813599,0.0448608,0.1231995s0.0234985,0.0844421,0.0320435,0.1277771
				s0.0149536,0.0874023,0.0192261,0.1321716s0.0064087,0.0902405,0.0064087,0.1363831v0.7607422v0.7607422v0.7607422v0.7607422
				c0,0.0224609-0.0018311,0.0438843-0.0054779,0.0643005s-0.0091095,0.0398254-0.0163727,0.0582581
				s-0.0163269,0.0358887-0.0271759,0.0523987s-0.0234833,0.032074-0.0378876,0.0467224
				c-0.0146484,0.0144043-0.0302734,0.0270386-0.0468597,0.0378876s-0.0341339,0.0199127-0.0526276,0.0271759
				s-0.0379333,0.0127258-0.0583038,0.0163727s-0.0416718,0.0054779-0.0638885,0.0054779
				c-0.0205078,0-0.0404053-0.0018311-0.0596771-0.0054779s-0.0379181-0.0091095-0.0559235-0.0163727
				s-0.0353699-0.0163269-0.0520782-0.0271759s-0.0327606-0.0234833-0.0481415-0.0378876
				c-0.0153809-0.0146484-0.0288696-0.0302124-0.040451-0.0467224s-0.0212555-0.0339661-0.029007-0.0523987
				s-0.0135803-0.0378418-0.0174713-0.0582581s-0.0058441-0.0418396-0.0058441-0.0643005v-0.7607422v-0.7607422v-0.7607422
				v-0.7607422c0-0.0495605-0.0043945-0.0973511-0.0131683-0.1433563s-0.0219269-0.0902252-0.039444-0.1326447
				s-0.0393982-0.0830383-0.0656281-0.1218414s-0.0568085-0.0757904-0.0917206-0.1109467
				c-0.0351563-0.0351563-0.0721436-0.065918-0.1109467-0.0922852s-0.079422-0.0483398-0.1218414-0.065918
				s-0.0866394-0.0307617-0.1326447-0.0395508s-0.0937958-0.0131836-0.1433563-0.0131836h-0.1799316h-0.1799316h-0.1799316
				h-0.1799316v0.9406738v0.9406738v0.9406738v0.9406738c0,0.0224609-0.0018311,0.0438843-0.0054932,0.0643005
				s-0.0091553,0.0398254-0.0164795,0.0582581s-0.0164795,0.0358887-0.0274658,0.0523987s-0.0238037,0.032074-0.0384521,0.0467224
				c-0.0146484,0.0144043-0.0302124,0.0270386-0.0467072,0.0378876s-0.0339203,0.0199127-0.0522919,0.0271759
				s-0.0376892,0.0127258-0.0579681,0.0163727S26.9460449,20.1777344,26.9238281,20.1777344z"/>
		</g>
		<g>
			<path style="fill:#262626;" d="M30.4394531,22.234375c-0.0222168,0-0.043457-0.0018311-0.063736-0.0054932
				s-0.0395966-0.0091553-0.0579681-0.0164795s-0.0357971-0.0164795-0.0522919-0.0274658s-0.0320587-0.0238037-0.0467072-0.0384521
				s-0.0274048-0.0302124-0.0382996-0.0467072s-0.019928-0.0339203-0.0271301-0.0522919s-0.0125732-0.0376892-0.0161438-0.0579681
				s-0.0053406-0.0415192-0.0053406-0.063736c0-0.0224609,0.00177-0.0438843,0.0053406-0.0643005
				s0.0089417-0.0398254,0.0161438-0.0582581s0.0162354-0.0358887,0.0271301-0.0523987s0.0236511-0.032074,0.0382996-0.0467224
				c0.0146484-0.0144043,0.0302124-0.0270386,0.0467072-0.0378876s0.0339203-0.0199127,0.0522919-0.0271759
				s0.0376892-0.0127258,0.0579681-0.0163727s0.0415192-0.0054779,0.063736-0.0054779
				c0.0395508,0,0.078064-0.0028687,0.1155701-0.0086212s0.0740051-0.014389,0.1095276-0.0259247
				s0.0700684-0.0259705,0.1036682-0.0433197s0.0662537-0.0376129,0.0979919-0.0608063s0.0610352-0.0484009,0.0878754-0.0756226
				s0.0512238-0.0564575,0.0731354-0.0877075s0.0413513-0.0645142,0.0583038-0.0997925s0.0314178-0.0725708,0.0433807-0.1118774
				l0.0925293-0.3085938l0.0925293-0.3085938l0.0925293-0.3085938l0.0925293-0.3085938l-0.3007813-1.0048828l-0.3007813-1.0048828
				l-0.3007813-1.0048828l-0.3007813-1.0048828c-0.0068359-0.0205078-0.0115356-0.0408325-0.0140991-0.0609589
				s-0.0029907-0.0400543-0.0012817-0.0597687s0.0055542-0.0392151,0.0115356-0.0584869s0.0140991-0.0383148,0.024353-0.0571136
				s0.0217896-0.0361328,0.0346222-0.0519867s0.0269623-0.0302277,0.0424042-0.0431061s0.032196-0.0242615,0.0502777-0.0341339
				s0.0374908-0.0182343,0.0582428-0.0250702c0.0205078-0.005127,0.0407104-0.0083618,0.0605927-0.0096893
				s0.039444-0.0007477,0.05867,0.0017548s0.0381165,0.0069275,0.0566559,0.0132904s0.0367279,0.0146637,0.0545502,0.0249176
				c0.0180664,0.010498,0.034729,0.0219727,0.0499878,0.0344543s0.0291138,0.0259705,0.0415649,0.0404968
				s0.0234985,0.0300903,0.0331421,0.0467224s0.0178833,0.0343323,0.0247192,0.0531311l0.2338867,0.7839355l0.2338867,0.7839355
				l0.2338867,0.7839355l0.2338867,0.7839355l0.2365723-0.7839355l0.2365723-0.7839355l0.2365723-0.7839355l0.2365723-0.7839355
				c0.005127-0.0187988,0.0119629-0.036499,0.0205078-0.0531311s0.0187988-0.032196,0.0307617-0.0467224
				s0.0256348-0.0280151,0.0410156-0.0404968s0.0324707-0.0239563,0.0512695-0.0344543
				c0.0187988-0.0102539,0.0378418-0.0185547,0.0571136-0.0249176s0.0387726-0.010788,0.0584869-0.0132904
				s0.0396423-0.0030823,0.0597687-0.0017548s0.040451,0.0045624,0.0609589,0.0096893
				c0.0205078,0.0068359,0.0397949,0.0151978,0.0578308,0.0250702s0.0348206,0.0212555,0.0503235,0.0341339
				s0.0297241,0.0272522,0.0426331,0.0431061s0.0245056,0.0331879,0.0347595,0.0519867s0.0183716,0.0378418,0.024353,0.0571136
				s0.0098267,0.0387726,0.0115356,0.0584869s0.0012817,0.0396423-0.0012817,0.0597687s-0.0072632,0.040451-0.0140991,0.0609589
				l-0.3085938,1.0280762l-0.3085938,1.0280762l-0.3085938,1.0280762l-0.3085938,1.0280762l-0.0976563,0.3291016
				l-0.0976563,0.3291016l-0.0976563,0.3291016l-0.0976563,0.3291016c-0.0239258,0.0734863-0.0519409,0.1429443-0.0840302,0.208374
				s-0.0682526,0.1268311-0.1084747,0.1842041s-0.0845032,0.1107178-0.1328278,0.1600342s-0.1006927,0.0946045-0.1570892,0.1358643
				c-0.0600586,0.0444336-0.1218262,0.083374-0.1853027,0.1167908s-0.1286621,0.0613098-0.1955566,0.0836487
				s-0.135498,0.0391235-0.2058105,0.0503235S30.5131836,22.234375,30.4394531,22.234375z"/>
		</g>
		<g>
			<path style="fill:#262626;" d="M35.7958984,19.3857422c0.0393066-0.0358887,0.0730591-0.0737305,0.1012573-0.1135101
				s0.0508423-0.0814972,0.0679321-0.1251373s0.0286255-0.0892029,0.0346069-0.136673s0.0064087-0.0968475,0.0012817-0.1481171
				c-0.003418-0.0515137-0.0117798-0.1004028-0.0250702-0.146698s-0.0315094-0.0899963-0.0546417-0.131134
				s-0.051178-0.0797119-0.0841217-0.1157532s-0.0707855-0.0695496-0.1135101-0.1005554l-0.2390137-0.1696777l-0.2390137-0.1696777
				l-0.2390137-0.1696777l-0.2390137-0.1696777c-0.0395508-0.0273438-0.0769043-0.0563354-0.1120758-0.0869446
				s-0.068161-0.0628357-0.0989838-0.0966492s-0.0594788-0.0692139-0.0859833-0.1061707s-0.0508575-0.07547-0.0730743-0.115509
				c-0.0222168-0.0402832-0.0421143-0.0813599-0.0596771-0.1231995s-0.0327911-0.0844421-0.0456696-0.1277771
				s-0.023407-0.0874023-0.0315704-0.1321716s-0.0139618-0.0902405-0.0173798-0.1363831
				c-0.003418-0.0480957-0.0041504-0.09552-0.0022125-0.1422729s0.006546-0.0928345,0.0138092-0.1382446
				s0.0171814-0.0901489,0.0297394-0.1342163s0.0277557-0.0874634,0.045578-0.130188
				c0.0180664-0.0427246,0.038147-0.0839844,0.0602417-0.1237793s0.0462036-0.078125,0.0723267-0.1149902
				s0.0542603-0.0722656,0.0844116-0.1062012s0.0623169-0.0664063,0.0964966-0.0974121
				c0.0344238-0.0324707,0.0700684-0.0626221,0.1069641-0.0904388s0.0750427-0.053299,0.1144714-0.0764313
				s0.0801392-0.0439148,0.1221619-0.0623322S35.0725098,15.5136719,35.1171875,15.5
				c0.0444336-0.0136719,0.0891113-0.0247803,0.1340332-0.0333252s0.0900879-0.0145264,0.135498-0.0179443
				s0.0910645-0.0042725,0.1369629-0.0025635s0.092041,0.0059814,0.1384277,0.0128174
				c0.0461426,0.0085449,0.0913696,0.0192261,0.1356659,0.0320435s0.0876617,0.027771,0.1300812,0.0448608
				s0.0838928,0.0363159,0.1244049,0.0576782s0.0800629,0.0448608,0.1186371,0.0704956
				c0.0385742,0.0258789,0.0753174,0.0536499,0.1102295,0.083313s0.0679932,0.0612183,0.0992432,0.0946655
				s0.0606689,0.0687866,0.0882568,0.1060181s0.0533447,0.076355,0.0772705,0.1173706
				c0.0102539,0.0187988,0.0186157,0.0378418,0.0250702,0.0571136s0.0110016,0.0387726,0.0136261,0.0584869
				s0.0033264,0.0396423,0.0020905,0.0597687s-0.0044098,0.040451-0.0095367,0.0609589s-0.0120239,0.0397339-0.0206604,0.0576935
				s-0.0190125,0.0346527-0.0310974,0.0500946s-0.0258789,0.0296326-0.0413513,0.0425873s-0.0326233,0.0246735-0.0514221,0.0351715
				c-0.0187988,0.0102539-0.0378418,0.0185547-0.0571136,0.0249176s-0.0387726,0.010788-0.0584869,0.0132904
				s-0.0396423,0.0030823-0.0597687,0.0017548s-0.040451-0.0045624-0.0609589-0.0096893s-0.0397339-0.0119629-0.0576782-0.0205078
				s-0.0346069-0.0187988-0.0499878-0.0307617s-0.02948-0.0256348-0.0422974-0.0410156s-0.024353-0.0324707-0.0346069-0.0512695
				c-0.0241699-0.0412598-0.0515137-0.0783691-0.0820313-0.1113739s-0.064209-0.0619049-0.1010742-0.0867462
				s-0.0769043-0.0456238-0.1201172-0.0623932s-0.0895996-0.0295258-0.1391602-0.0383148
				c-0.0498047-0.0085449-0.0978394-0.0117188-0.1441193-0.0095367s-0.0908051,0.0097198-0.1335907,0.0225983
				s-0.0838318,0.0310974-0.1231537,0.0546417s-0.0769196,0.0524139-0.1128082,0.0865936
				c-0.0361328,0.0327148-0.0673218,0.0675049-0.0935516,0.1044006s-0.0475006,0.0758972-0.063797,0.1170349
				s-0.0276184,0.0844116-0.0339508,0.1298523s-0.0076752,0.0930481-0.0040131,0.1428528
				c0.003418,0.0495605,0.0115356,0.0963745,0.024353,0.1404266s0.0303345,0.0853424,0.0525513,0.1238556
				s0.0491333,0.0742493,0.0807495,0.107193s0.0679321,0.0630951,0.1089478,0.0904388l0.2390137,0.1672363l0.2390137,0.1672363
				l0.2390137,0.1672363l0.2390137,0.1672363c0.0395508,0.0290527,0.0770264,0.0596313,0.112442,0.0917206
				s0.0687714,0.0656891,0.1000824,0.1007843s0.0605774,0.0716858,0.0878143,0.1097565s0.0524445,0.0776215,0.0756378,0.1186371
				c0.0229492,0.0412598,0.0435181,0.0835571,0.061676,0.1268921s0.033905,0.0877075,0.0472107,0.1331177
				s0.0241699,0.0918579,0.0325623,0.1393433s0.0143127,0.0960083,0.0177307,0.1455688
				c0.003418,0.0498047,0.0041504,0.0988159,0.0021973,0.147049s-0.0065918,0.0956879-0.013916,0.1423798
				s-0.017334,0.0926208-0.0300293,0.1378021s-0.0280762,0.0896149-0.0461426,0.133316
				c-0.0178223,0.0437012-0.0379639,0.0859985-0.0603943,0.1269073s-0.0471497,0.0804291-0.0741272,0.118576
				s-0.0562134,0.0749207-0.087677,0.1103363s-0.065155,0.0694733-0.1010437,0.1021881
				c-0.0361328,0.0341797-0.0733643,0.0657959-0.1117249,0.0948486s-0.0778503,0.055542-0.1184998,0.0794678
				s-0.0824585,0.0452881-0.1254578,0.0640869s-0.0871887,0.0350342-0.1325989,0.0487061
				c-0.0454102,0.013916-0.0911865,0.0251465-0.1372986,0.0337524s-0.0925598,0.0145874-0.1393127,0.0180054
				s-0.093811,0.0042725-0.1411438,0.0026245s-0.0949402-0.0057983-0.1427917-0.0123901
				c-0.0498047-0.0087891-0.0982666-0.0197144-0.1454163-0.0328217s-0.0929871-0.0283966-0.1375427-0.0459137
				s-0.0878296-0.037262-0.1298523-0.0592804s-0.0827942-0.0463104-0.122345-0.0729218
				c-0.0393066-0.0266113-0.0767212-0.0552368-0.1122284-0.0858917s-0.0691071-0.0633392-0.1007843-0.0980682
				s-0.0614319-0.0715027-0.0892487-0.1103363s-0.0536957-0.0797272-0.0776215-0.1226959
				c-0.0102539-0.0187988-0.0186157-0.0378418-0.0250702-0.0571136s-0.0110016-0.0387726-0.0136261-0.0584869
				s-0.0033264-0.0396423-0.0020905-0.0597687s0.0044098-0.040451,0.0095367-0.0609589s0.0119629-0.0397339,0.0205231-0.0576782
				s0.0188446-0.0346069,0.0308685-0.0499878s0.0257874-0.02948,0.0413055-0.0422974s0.0327911-0.024353,0.0518341-0.0346069
				c0.0187988-0.0102539,0.0378418-0.0186157,0.0571136-0.0250702s0.0387726-0.0110016,0.0584869-0.0136261
				s0.0396423-0.0033264,0.0597687-0.0020905s0.040451,0.0044098,0.0609589,0.0095367s0.0397339,0.0119629,0.0576782,0.0205231
				s0.0346069,0.0188446,0.0499878,0.0308685s0.02948,0.0257874,0.0422974,0.0413055s0.024353,0.0327911,0.0346069,0.0518341
				c0.0275879,0.0444336,0.0581055,0.0844116,0.0915833,0.1199188s0.0699158,0.0665436,0.1093445,0.0930939
				s0.0818481,0.0486145,0.1272888,0.0661774s0.0939026,0.0306244,0.1454163,0.0391693
				c0.0495605,0.0085449,0.0980835,0.0115356,0.1455688,0.0089569s0.0939331-0.0107269,0.1393433-0.0244598
				s0.0897827-0.0330505,0.1331177-0.0579681S35.7546387,19.421875,35.7958984,19.3857422z"/>
		</g>
	</g>
</g>
</svg>
