<?xml version="1.0" encoding="UTF-8" standalone="no"?>
<svg
   xmlns:dc="http://purl.org/dc/elements/1.1/"
   xmlns:cc="http://creativecommons.org/ns#"
   xmlns:rdf="http://www.w3.org/1999/02/22-rdf-syntax-ns#"
   xmlns:svg="http://www.w3.org/2000/svg"
   xmlns="http://www.w3.org/2000/svg"
   xmlns:sodipodi="http://sodipodi.sourceforge.net/DTD/sodipodi-0.dtd"
   xmlns:inkscape="http://www.inkscape.org/namespaces/inkscape"
   inkscape:version="1.0 (4035a4fb49, 2020-05-01)"
   height="13.800831"
   width="34.700249"
   sodipodi:docname="oni_logo.svg"
   xml:space="preserve"
   viewBox="0 0 34.700249 13.800831"
   y="0px"
   x="0px"
   id="Layer_1"
   version="1.1"><metadata
   id="metadata107"><rdf:RDF><cc:Work
       rdf:about=""><dc:format>image/svg+xml</dc:format><dc:type
         rdf:resource="http://purl.org/dc/dcmitype/StillImage" /><dc:title></dc:title></cc:Work></rdf:RDF></metadata><defs
   id="defs105">
	
	
	
	
	
	
	
	
	
	
	
	
	
	
	
</defs><sodipodi:namedview
   inkscape:current-layer="Layer_1"
   inkscape:window-maximized="1"
   inkscape:window-y="-8"
   inkscape:window-x="-8"
   inkscape:cy="10.900631"
   inkscape:cx="17.849804"
   inkscape:zoom="27.53281"
   fit-margin-bottom="0"
   fit-margin-right="0"
   fit-margin-left="0"
   fit-margin-top="0"
   showgrid="false"
   id="namedview103"
   inkscape:window-height="1017"
   inkscape:window-width="1920"
   inkscape:pageshadow="2"
   inkscape:pageopacity="0"
   guidetolerance="10"
   gridtolerance="10"
   objecttolerance="10"
   borderopacity="1"
   bordercolor="#666666"
   pagecolor="#ffffff" />
<g
   transform="translate(-1.2001953,-0.39936956)"
   id="Layer_1_1_">
</g>
<g
   transform="translate(-1.2001953,-0.39936956)"
   id="g5">
		<path
   style="fill:#9322ff"
   d="M 6.5,14 C 6.3757324,14 6.2573547,13.97479 6.1496887,13.92921 6.0420227,13.88363 5.9450683,13.817683 5.8636474,13.736201 5.7822264,13.654721 5.7163391,13.557704 5.6708068,13.449992 c -0.045532,-0.107712 -0.070709,-0.22612 -0.070709,-0.350388 0,-0.124267 0.025177,-0.242675 0.070709,-0.350387 0.045532,-0.107712 0.1114197,-0.204727 0.1928406,-0.286209 0.081421,-0.08148 0.1783752,-0.147431 0.2860413,-0.193009 0.1076661,-0.04558 0.2260437,-0.07079 0.3503113,-0.07079 0.4742432,0 0.9301147,-0.100128 1.3471603,-0.279961 0.4170456,-0.179832 0.7952652,-0.439369 1.1142044,-0.758186 0.3189392,-0.318817 0.578598,-0.696915 0.758522,-1.113869 C 9.8998107,9.6302492 10,9.1744385 10,8.7001953 10,8.5759277 10.025177,8.45755 10.070709,8.349884 c 0.04553,-0.107666 0.11142,-0.2046204 0.192841,-0.2860413 0.08142,-0.081421 0.178375,-0.1473083 0.286041,-0.1928406 0.107666,-0.045532 0.226044,-0.070709 0.350311,-0.070709 0.124268,0 0.242646,0.025177 0.350312,0.070709 0.107666,0.045532 0.20462,0.1114197 0.286041,0.1928406 0.08142,0.081421 0.147308,0.1783752 0.192841,0.2860413 0.04553,0.1076661 0.07071,0.2260437 0.07071,0.3503113 0,0.7181396 -0.151673,1.4084477 -0.424072,2.0399547 -0.2724,0.631508 -0.665528,1.204216 -1.148438,1.687157 C 9.7443848,12.910248 9.171692,13.303421 8.5401612,13.575859 7.9086304,13.848297 7.2182617,14 6.5,14 Z"
   id="path3" />
	</g><g
   transform="translate(-1.2001953,-0.39936956)"
   id="g9">
		<path
   style="fill:#00ade2"
   d="m 20.700195,14.200195 c -0.124267,0 -0.242645,-0.02521 -0.350311,-0.07079 -0.107666,-0.04558 -0.20462,-0.111527 -0.286041,-0.193009 -0.08142,-0.08148 -0.147309,-0.178497 -0.192841,-0.286209 -0.04553,-0.107711 -0.07071,-0.22612 -0.07071,-0.350387 V 11.649902 10 8.3500977 6.7001953 c 0,-0.1242676 0.02518,-0.2426453 0.07071,-0.3503113 0.04553,-0.107666 0.11142,-0.2046204 0.192841,-0.2860413 0.08142,-0.081421 0.178375,-0.1473083 0.286041,-0.1928406 0.107666,-0.045532 0.226044,-0.070709 0.350311,-0.070709 0.124268,0 0.242676,0.025177 0.350388,0.070709 0.107712,0.045532 0.204727,0.1114197 0.286209,0.1928406 0.08148,0.081421 0.14743,0.1783752 0.193008,0.2860413 0.04558,0.1076661 0.07079,0.2260437 0.07079,0.3503113 V 8.3500976 10 v 1.649902 1.649903 c 0,0.124267 -0.02521,0.242675 -0.07079,0.350387 -0.04558,0.107712 -0.111526,0.204727 -0.193008,0.286209 -0.08148,0.08148 -0.178497,0.147431 -0.286209,0.193009 -0.107712,0.04558 -0.22612,0.07079 -0.350388,0.07079 z"
   id="path7" />
	</g><g
   transform="translate(-1.2001953,-0.39936956)"
   id="g13">
		<path
   style="fill:#ff9b24"
   d="m 35.000977,14.200195 c -0.07422,0 -0.148011,-0.0092 -0.219635,-0.02707 -0.07163,-0.01791 -0.141083,-0.04459 -0.206635,-0.07962 -0.06555,-0.03503 -0.127197,-0.07843 -0.183197,-0.129791 -0.056,-0.05136 -0.106354,-0.110688 -0.149322,-0.177582 L 32.317139,10.786011 30.39209,7.7858885 28.467041,4.7857666 26.541992,1.7856445 c -0.06714,-0.1044922 -0.109863,-0.2176819 -0.129654,-0.3328781 -0.01979,-0.1151962 -0.01665,-0.232399 0.008,-0.3449173 0.0246,-0.1125183 0.07065,-0.2203522 0.136673,-0.3168106 0.06602,-0.0964584 0.152023,-0.1815414 0.256516,-0.248558 0.10498,-0.0675049 0.218444,-0.1103821 0.333786,-0.1302032 0.115341,-0.0198211 0.232559,-0.0165863 0.345047,0.008133 0.112487,0.0247192 0.220245,0.0709229 0.316665,0.1370392 0.09642,0.0661163 0.181503,0.1521454 0.248642,0.2565155 l 1.925049,2.9998779 1.925049,2.9998779 1.925049,2.9998779 1.925048,2.9998773 c 0.06714,0.104737 0.109864,0.218079 0.129654,0.333374 0.01979,0.115296 0.01665,0.232544 -0.008,0.345093 -0.0246,0.112549 -0.07065,0.220398 -0.136673,0.316895 -0.06602,0.0965 -0.152023,0.18164 -0.256515,0.248779 -0.0376,0.02393 -0.07635,0.0448 -0.115936,0.06265 -0.03958,0.01785 -0.07999,0.03268 -0.12088,0.04453 -0.04089,0.01184 -0.08228,0.02069 -0.12381,0.02658 -0.04153,0.0059 -0.08322,0.0088 -0.124725,0.0088 z"
   id="path11" />
	</g><g
   transform="translate(-1.2001953,-0.39936956)"
   id="g17">
		<path
   style="fill:#f95e19"
   d="m 27.299805,11.799805 c -0.05127,0 -0.1026,-0.0043 -0.153397,-0.01306 -0.0508,-0.0087 -0.101059,-0.02185 -0.150192,-0.03943 -0.04913,-0.01758 -0.09714,-0.03961 -0.143418,-0.06616 -0.04628,-0.02655 -0.09083,-0.05762 -0.133072,-0.09326 -0.09497,-0.08008 -0.16925,-0.175629 -0.222229,-0.279846 -0.05298,-0.104218 -0.08465,-0.217103 -0.09442,-0.331849 -0.0098,-0.114746 0.0024,-0.231353 0.03705,-0.343017 0.03467,-0.111664 0.09186,-0.218384 0.172181,-0.313355 l 1.75,-2.0749509 1.75,-2.0749512 1.75,-2.0749512 1.75,-2.0749512 c 0.08008,-0.095337 0.175598,-0.1697693 0.279769,-0.2227859 0.104172,-0.053017 0.216996,-0.084618 0.331681,-0.094292 0.114685,-0.00967 0.231231,0.00258 0.342849,0.03727 0.111618,0.034691 0.218308,0.09182 0.313279,0.1718979 0.09497,0.080078 0.16925,0.1756287 0.222229,0.2798462 0.05298,0.1042175 0.08466,0.2171021 0.09442,0.3318481 0.0098,0.114746 -0.0024,0.2313538 -0.03705,0.3430176 -0.03467,0.1116638 -0.09186,0.2183838 -0.17218,0.3133545 l -1.75,2.0749512 -1.75,2.0749512 -1.75,2.0749512 -1.75,2.0749515 c -0.04443,0.05286 -0.09363,0.09927 -0.146424,0.139167 -0.05279,0.0399 -0.109192,0.07327 -0.16803,0.100029 -0.05884,0.02676 -0.120117,0.04692 -0.182678,0.06039 -0.06256,0.01347 -0.126404,0.02024 -0.190368,0.02024 z"
   id="path15" />
	</g><g
   transform="translate(-1.2001953,-0.39936956)"
   id="g21">
		<path
   style="fill:#517c60"
   d="m 24,14.200195 c -0.124268,0 -0.242676,-0.02521 -0.350388,-0.07079 -0.107711,-0.04558 -0.204727,-0.111527 -0.286209,-0.193009 -0.08148,-0.08148 -0.14743,-0.178497 -0.193008,-0.286209 -0.04558,-0.107711 -0.07079,-0.22612 -0.07079,-0.350387 V 12.149902 11 9.8500977 8.7001953 c 0,-0.1242676 0.02521,-0.2426453 0.07079,-0.3503113 0.04558,-0.107666 0.111526,-0.2046204 0.193008,-0.2860413 0.08148,-0.081421 0.178498,-0.1473083 0.286209,-0.1928406 C 23.757324,7.8254698 23.875732,7.800293 24,7.800293 c 0.124268,0 0.242676,0.025177 0.350388,0.070709 0.107711,0.045532 0.204727,0.1114197 0.286209,0.1928406 0.08148,0.081421 0.14743,0.1783752 0.193008,0.2860413 0.04558,0.1076661 0.07079,0.2260437 0.07079,0.3503113 V 9.8500977 11 v 1.149902 1.149903 c 0,0.124267 -0.02521,0.242675 -0.07079,0.350387 -0.04558,0.107712 -0.111526,0.204727 -0.193008,0.286209 -0.08148,0.08148 -0.178498,0.147431 -0.286209,0.193009 C 24.242676,14.17499 24.124268,14.2002 24,14.2002 Z"
   id="path19" />
	</g><g
   transform="translate(-1.2001953,-0.39936956)"
   id="g25">
		<path
   style="fill:#6dba00"
   d="m 24,2.3999023 c -0.124268,0 -0.242676,-0.025177 -0.350388,-0.070709 C 23.541901,2.2836609 23.444885,2.2177734 23.363403,2.1363525 23.281921,2.0549316 23.215973,1.9579773 23.170395,1.8503112 23.124817,1.7426451 23.099609,1.6242676 23.099609,1.5 V 1.449951 1.399902 1.349853 1.299804 c 0,-0.1242676 0.02521,-0.2426453 0.07079,-0.3503113 0.04558,-0.107666 0.111526,-0.2046204 0.193008,-0.2860413 0.08148,-0.0814209 0.178498,-0.1473083 0.286209,-0.1928406 C 23.757324,0.4250792 23.875732,0.3999023 24,0.3999023 c 0.124268,0 0.242676,0.025177 0.350388,0.0707092 0.107711,0.0455322 0.204727,0.1114197 0.286209,0.1928406 0.08148,0.0814209 0.14743,0.1783752 0.193008,0.2860413 0.04558,0.1076661 0.07079,0.2260437 0.07079,0.3503113 v 0.050049 0.050049 0.050049 V 1.5 c 0,0.1242676 -0.02521,0.2426453 -0.07079,0.3503113 -0.04558,0.107666 -0.111526,0.2046204 -0.193008,0.2860413 -0.08148,0.081421 -0.178498,0.1473083 -0.286209,0.1928406 C 24.242676,2.3747255 24.124268,2.3999023 24,2.3999023 Z"
   id="path23" />
	</g><g
   transform="translate(-1.2001953,-0.39936956)"
   id="g37">
		<g
   id="g29">
			<path
   style="fill:#008ce2"
   d="m 13.899902,9.6000977 c -0.124267,0 -0.242645,-0.025177 -0.350311,-0.070709 C 13.441925,9.4838563 13.344971,9.4179688 13.26355,9.3365479 13.182129,9.255127 13.116241,9.1581727 13.070709,9.0505066 13.025177,8.9428405 13,8.8244629 13,8.7001953 V 7.4750977 6.25 5.0249023 3.7998047 c 0,-0.1242676 0.02518,-0.2426453 0.07071,-0.3503113 0.04553,-0.107666 0.11142,-0.2046204 0.192841,-0.2860413 0.08142,-0.081421 0.178375,-0.1473083 0.286041,-0.1928406 0.107666,-0.045532 0.226044,-0.070709 0.350311,-0.070709 0.124268,0 0.242646,0.025177 0.350312,0.070709 0.107666,0.045532 0.20462,0.1114197 0.286041,0.1928406 0.08142,0.081421 0.147308,0.1783752 0.192841,0.2860413 0.04553,0.1076661 0.07071,0.2260437 0.07071,0.3503113 V 5.0249024 6.25 7.4750977 8.7001954 c 0,0.1242676 -0.02518,0.2426453 -0.07071,0.3503113 -0.04553,0.107666 -0.11142,0.2046204 -0.192841,0.2860413 -0.08142,0.081421 -0.178375,0.1473083 -0.286041,0.1928406 -0.107666,0.045532 -0.226044,0.070709 -0.350312,0.070709 z"
   id="path27" />
		</g>
		<g
   id="g35">
			<g
   id="g33">
				<path
   style="fill:#008ce2"
   d="m 20.700195,7.6000977 c -0.124267,0 -0.242645,-0.025177 -0.350311,-0.070709 -0.107666,-0.045532 -0.20462,-0.1114197 -0.286041,-0.1928406 -0.08142,-0.081421 -0.147309,-0.1783752 -0.192841,-0.2860413 -0.04553,-0.1076661 -0.07071,-0.2260437 -0.07071,-0.3503113 0,-0.2757568 -0.0701,-0.5386658 -0.196793,-0.777916 C 19.476807,5.6830291 19.293518,5.4674377 19.067139,5.2863159 18.840759,5.1051941 18.571289,4.9585419 18.272232,4.8571701 17.973175,4.7557983 17.644531,4.699707 17.299805,4.699707 c -0.344605,0 -0.673157,0.056091 -0.972145,0.1574631 -0.298989,0.1013718 -0.568413,0.248024 -0.794762,0.4291458 -0.226349,0.1811218 -0.409622,0.3967133 -0.536308,0.6359634 -0.126686,0.2392501 -0.196785,0.5021591 -0.196785,0.777916 0,0.1242676 -0.02518,0.2426453 -0.07071,0.3503113 -0.04553,0.107666 -0.111419,0.2046204 -0.19284,0.2860413 -0.08142,0.081421 -0.178375,0.1473083 -0.286042,0.1928406 -0.107666,0.045532 -0.226043,0.070709 -0.350311,0.070709 -0.124267,0 -0.242645,-0.025177 -0.350311,-0.070709 C 13.441925,7.4838563 13.344971,7.4179688 13.26355,7.3365479 13.182129,7.255127 13.116241,7.1581727 13.070709,7.0505066 13.025177,6.9428405 13,6.8244629 13,6.7001953 13,6.1762695 13.120544,5.6767883 13.338409,5.2222748 13.556274,4.7677613 13.87146,4.3582154 14.260742,4.0141602 14.650024,3.670105 15.113403,3.3915406 15.627655,3.1989899 c 0.514252,-0.1925507 1.079376,-0.2990875 1.67215,-0.2990875 0.592773,0 1.157959,0.1065369 1.672302,0.2990875 0.514343,0.1925506 0.977844,0.4711151 1.367248,0.8151703 0.389405,0.3440552 0.704712,0.7536011 0.922669,1.2081146 0.217956,0.4545135 0.338562,0.9539948 0.338562,1.4779205 0,0.1242676 -0.02521,0.2426453 -0.07079,0.3503113 -0.04558,0.107666 -0.111526,0.2046204 -0.193008,0.2860413 -0.08148,0.081421 -0.178497,0.1473083 -0.286209,0.1928406 -0.107712,0.045532 -0.22612,0.070709 -0.350388,0.070709 z"
   id="path31" />
			</g>
		</g>
	</g><g
   transform="translate(-1.2001953,-0.39936956)"
   id="g41">
		<path
   style="fill:#10639b"
   d="m 13.899902,14.200195 c -0.124267,0 -0.242645,-0.02521 -0.350311,-0.07079 -0.107666,-0.04558 -0.20462,-0.111527 -0.286041,-0.193009 -0.08142,-0.08148 -0.147309,-0.178497 -0.192841,-0.286209 C 13.025177,13.542481 13,13.424072 13,13.299805 V 12.149902 11 9.8500977 8.7001953 C 13,8.5759277 13.02518,8.45755 13.07071,8.349884 c 0.04553,-0.107666 0.11142,-0.2046204 0.192841,-0.2860413 0.08142,-0.081421 0.178375,-0.1473083 0.286041,-0.1928406 0.107666,-0.045532 0.226044,-0.070709 0.350311,-0.070709 0.124268,0 0.242646,0.025177 0.350312,0.070709 0.107666,0.045532 0.20462,0.1114197 0.286041,0.1928406 0.08142,0.081421 0.147308,0.1783752 0.192841,0.2860413 0.04553,0.1076661 0.07071,0.2260437 0.07071,0.3503113 V 9.8500976 11 v 1.149902 1.149903 c 0,0.124267 -0.02518,0.242675 -0.07071,0.350387 -0.04553,0.107712 -0.11142,0.204727 -0.192841,0.286209 -0.08142,0.08148 -0.178375,0.147431 -0.286041,0.193009 -0.107666,0.04558 -0.226044,0.07079 -0.350312,0.07079 z"
   id="path39" />
	</g><g
   transform="translate(-1.2001953,-0.39936956)"
   id="g45">
		<path
   style="fill:#6dba00"
   d="m 24,9.6000977 c -0.124268,0 -0.242676,-0.025177 -0.350388,-0.070709 C 23.541901,9.4838563 23.444885,9.4179688 23.363403,9.3365479 23.281921,9.255127 23.215973,9.1581727 23.170395,9.0505066 23.124817,8.9428405 23.099609,8.8244629 23.099609,8.7001953 V 7.6751709 6.6501465 5.6251221 4.6000977 c 0,-0.1242676 0.02521,-0.2426453 0.07079,-0.3503113 0.04558,-0.107666 0.111526,-0.2046204 0.193008,-0.2860413 0.08148,-0.081421 0.178498,-0.1473083 0.286209,-0.1928406 0.107712,-0.045532 0.22612,-0.070709 0.350388,-0.070709 0.124268,0 0.242676,0.025177 0.350388,0.070709 0.107711,0.045532 0.204727,0.1114197 0.286209,0.1928406 0.08148,0.081421 0.14743,0.1783752 0.193008,0.2860413 0.04558,0.1076661 0.07079,0.2260437 0.07079,0.3503113 v 1.0250244 1.0250244 1.0250244 1.0250244 c 0,0.1242676 -0.02521,0.2426453 -0.07079,0.3503113 -0.04558,0.107666 -0.111526,0.2046204 -0.193008,0.2860413 -0.08148,0.081421 -0.178498,0.1473083 -0.286209,0.1928406 C 24.242676,9.5749208 24.124268,9.6000977 24,9.6000977 Z"
   id="path43" />
	</g><g
   transform="translate(-1.2001953,-0.39936956)"
   id="g49">
		<path
   style="fill:#ba78f9"
   d="m 10.899902,9.6000977 c -0.124267,0 -0.242645,-0.025177 -0.350311,-0.070709 C 10.441925,9.4838563 10.344971,9.4179688 10.26355,9.3365479 10.182129,9.255127 10.116241,9.1581727 10.070709,9.0505066 10.025177,8.9428405 10,8.8244629 10,8.7001953 10,8.2258301 9.8998108,7.7698669 9.7198868,7.3527527 9.5399628,6.9356385 9.280304,6.557373 8.9613647,6.2384033 8.6424254,5.9194336 8.2642059,5.6597595 7.8471603,5.4798279 7.4301147,5.2998963 6.9742432,5.199707 6.5,5.199707 6.3757324,5.199707 6.2573547,5.17453 6.1496887,5.1289978 6.0420227,5.0834656 5.9450684,5.0175781 5.8636475,4.9361572 5.7822266,4.8547363 5.7163391,4.757782 5.6708069,4.650116 5.6252747,4.54245 5.6000977,4.4240723 5.6000977,4.2998047 c 0,-0.1242676 0.025177,-0.2426453 0.070709,-0.3503113 C 5.7163391,3.8418274 5.7822266,3.744873 5.8636475,3.6634521 5.9450684,3.5820312 6.0420227,3.5161438 6.1496888,3.4706115 6.2573549,3.4250792 6.3757324,3.3999023 6.5,3.3999023 c 0.7182617,0 1.4086304,0.1517029 2.0401611,0.4241486 0.6315307,0.2724457 1.2042236,0.6656342 1.6871339,1.1486053 0.48291,0.4829711 0.876038,1.0557251 1.148437,1.6873016 0.2724,0.6315765 0.424073,1.3219757 0.424073,2.0402374 0,0.1242676 -0.02518,0.2426453 -0.07071,0.3503113 -0.04553,0.107666 -0.11142,0.2046204 -0.192841,0.2860413 -0.08142,0.081421 -0.178375,0.1473083 -0.286041,0.1928406 -0.107667,0.045532 -0.226044,0.070709 -0.350312,0.070709 z"
   id="path47" />
	</g><g
   transform="translate(-1.2001953,-0.39936956)"
   id="g53">
		<path
   style="fill:#9322ff"
   d="m 2.1000977,9.6000977 c -0.1242676,0 -0.2426453,-0.025177 -0.3503113,-0.070709 C 1.6421204,9.4838563 1.545166,9.4179688 1.4637451,9.3365479 1.3823242,9.255127 1.3164368,9.1581726 1.2709045,9.0505066 1.2253722,8.9428406 1.2001953,8.8244629 1.2001953,8.7001953 c 0,-0.7182617 0.1516724,-1.4086609 0.4240723,-2.0402374 C 1.8966675,6.0283814 2.2897949,5.4556275 2.7727051,4.9726563 3.2556153,4.4896851 3.8283081,4.0964966 4.4598389,3.824051 5.0913697,3.5516054 5.7817383,3.3999023 6.5,3.3999023 c 0.1242676,0 0.2426453,0.025177 0.3503113,0.070709 0.107666,0.045532 0.2046204,0.1114197 0.2860413,0.1928406 0.081421,0.081421 0.1473083,0.1783752 0.1928406,0.2860413 0.045532,0.1076661 0.070709,0.2260437 0.070709,0.3503113 0,0.1242676 -0.025177,0.2426453 -0.070709,0.3503113 C 7.2836609,4.757782 7.2177734,4.8547363 7.1363525,4.9361572 7.0549316,5.0175781 6.9579773,5.0834656 6.8503113,5.1289978 6.7426453,5.17453 6.6242676,5.199707 6.5,5.199707 6.0257568,5.199707 5.5698853,5.2998962 5.1528397,5.4798278 4.7357941,5.6597594 4.3575745,5.9194336 4.0386353,6.2384033 3.7196961,6.557373 3.4600373,6.9356384 3.2801133,7.3527527 3.1001893,7.769867 3,8.2258301 3,8.7001953 3,8.8244629 2.974823,8.9428406 2.9292908,9.0505066 2.8837586,9.1581726 2.8178711,9.255127 2.7364502,9.3365479 2.6550293,9.4179688 2.558075,9.4838562 2.4504089,9.5293884 2.3427428,9.5749206 2.2243652,9.6000977 2.1000977,9.6000977 Z"
   id="path51" />
	</g><g
   transform="translate(-1.2001953,-0.39936956)"
   id="g57">
		<path
   style="fill:#6f1472"
   d="M 6.5,14 C 5.7817383,14 5.0913696,13.848297 4.4598389,13.575859 3.8283082,13.303421 3.2556153,12.910248 2.7727051,12.427307 2.2897949,11.944367 1.8966675,11.371658 1.6242676,10.740151 1.3518677,10.108643 1.2001953,9.418335 1.2001953,8.7001953 1.2001953,8.5759277 1.2253723,8.45755 1.2709045,8.349884 1.3164367,8.242218 1.3823242,8.1452636 1.4637451,8.0638427 1.545166,7.9824218 1.6421203,7.9165344 1.7497864,7.8710021 1.8574525,7.8254698 1.9758301,7.800293 2.1000977,7.800293 c 0.1242676,0 0.2426452,0.025177 0.3503112,0.070709 0.107666,0.045532 0.2046204,0.1114197 0.2860413,0.1928406 C 2.8178711,8.1452637 2.8837585,8.242218 2.9292908,8.349884 2.9748231,8.45755 3,8.5759277 3,8.7001953 3,9.1744385 3.1001892,9.630249 3.2801132,10.047203 c 0.179924,0.416954 0.4395828,0.795052 0.758522,1.113869 0.3189392,0.318817 0.6971588,0.578354 1.1142044,0.758186 0.4170456,0.179833 0.8729172,0.279961 1.3471604,0.279961 0.1242676,0 0.2426453,0.02521 0.3503113,0.07079 0.107666,0.04558 0.2046204,0.111527 0.2860413,0.193009 0.081421,0.08148 0.1473083,0.178497 0.1928406,0.286209 0.045532,0.107712 0.070709,0.22612 0.070709,0.350387 0,0.124268 -0.025177,0.242676 -0.070709,0.350388 -0.045532,0.107712 -0.1114197,0.204727 -0.1928406,0.286209 -0.081421,0.08148 -0.1783752,0.147431 -0.2860413,0.193009 C 6.7426452,13.974793 6.6242676,14 6.5,14 Z"
   id="path55" />
	</g><g
   transform="translate(-1.2001953,-0.39936956)"
   style="enable-background:new"
   id="g77">
	</g>
</svg>
