<?xml version="1.0" encoding="UTF-8" standalone="no"?>
<!-- Generator: Adobe Illustrator 16.0.3, SVG Export Plug-In . SVG Version: 6.00 Build 0)  -->

<svg
   xmlns:dc="http://purl.org/dc/elements/1.1/"
   xmlns:cc="http://creativecommons.org/ns#"
   xmlns:rdf="http://www.w3.org/1999/02/22-rdf-syntax-ns#"
   xmlns:svg="http://www.w3.org/2000/svg"
   xmlns="http://www.w3.org/2000/svg"
   xmlns:sodipodi="http://sodipodi.sourceforge.net/DTD/sodipodi-0.dtd"
   xmlns:inkscape="http://www.inkscape.org/namespaces/inkscape"
   version="1.0"
   id="svg814"
   sodipodi:docname="Bonsai.ONIX.svg"
   inkscape:version="0.92.4 (5da689c313, 2019-01-14)"
   x="0px"
   y="0px"
   width="30px"
   height="30px"
   viewBox="0 0 30 30"
   enable-background="new 0 0 30 30"
   xml:space="preserve"><metadata
   id="metadata16"><rdf:RDF><cc:Work
       rdf:about=""><dc:format>image/svg+xml</dc:format><dc:type
         rdf:resource="http://purl.org/dc/dcmitype/StillImage" /><dc:title></dc:title></cc:Work></rdf:RDF></metadata><defs
   id="defs14" />
<sodipodi:namedview
   id="namedview7"
   pagecolor="#ffffff"
   bordercolor="#666666"
   showgrid="false"
   inkscape:zoom="14.166667"
   borderopacity="1"
   objecttolerance="10"
   inkscape:cx="1.663905"
   gridtolerance="10"
   inkscape:cy="11.471891"
   guidetolerance="10"
   inkscape:window-maximized="1"
   inkscape:pageopacity="0"
   inkscape:pageshadow="2"
   inkscape:window-width="1920"
   inkscape:window-height="1017"
   inkscape:window-x="-8"
   inkscape:window-y="-8"
   inkscape:current-layer="svg814">
	</sodipodi:namedview>


<path
   style="fill:#4c4c4c;fill-opacity:1;stroke:none;stroke-width:0.48905066;stroke-miterlimit:4;stroke-dasharray:none;stroke-opacity:1"
   d="m 11.406347,5.5331174 c -0.316535,-0.00795 -0.638245,0.07521 -0.924911,0.2585957 C 9.7170019,6.281695 9.4941053,7.2989269 9.9831131,8.0643436 l 3.9129279,6.1100514 -3.382517,4.001642 c -0.5856589,0.692933 -0.501354,1.728497 0.192546,2.314156 0.308291,0.260938 0.685823,0.388838 1.060804,0.388838 0.46679,0 0.932397,-0.198617 1.257121,-0.583258 l 2.725639,-3.223963 3.926128,6.132704 c 0.314095,0.489017 0.844229,0.755029 1.387376,0.755029 0.302488,0 0.606047,-0.08272 0.881493,-0.258599 0.766375,-0.489983 0.991157,-1.506293 0.500209,-2.270743 L 17.971296,14.444317 21.914428,9.7801417 C 22.500087,9.0872079 22.413916,8.0497562 21.720015,7.4640967 21.027076,6.8784391 19.990578,6.9646156 19.403957,7.6585169 L 16.117721,11.546903 12.752172,6.2919181 C 12.44595,5.8141376 11.933913,5.5463202 11.406347,5.5331174 Z"
   id="path4-0-4-0"
   inkscape:connector-curvature="0" /><path
   style="fill:#ffffff;fill-opacity:1;stroke:none;stroke-width:0.48905066;stroke-miterlimit:4;stroke-dasharray:none;stroke-opacity:1"
   d="M 9.3898557,6.3805752 C 9.0733203,6.3726254 8.7516102,6.4557853 8.4649442,6.6391729 7.7004912,7.1291542 7.4775956,8.1463848 7.9666218,8.9118011 L 11.87955,15.021855 8.4970322,19.023496 c -0.5856584,0.692933 -0.5013725,1.728497 0.1925274,2.314157 0.3082922,0.260935 0.6858234,0.388837 1.0608045,0.388837 0.4667899,0 0.9323969,-0.198617 1.2571199,-0.583258 l 2.725659,-3.223964 3.926127,6.132706 c 0.314095,0.489014 0.84423,0.755026 1.387357,0.755026 0.302506,0 0.606065,-0.08272 0.881493,-0.258596 0.766394,-0.489984 0.991157,-1.506295 0.500208,-2.270743 l -4.473524,-6.985884 3.943113,-4.664178 C 20.483576,9.9346673 20.397405,8.8972155 19.703505,8.3115561 19.010566,7.7258966 17.974086,7.8120756 17.387465,8.5059743 L 14.10121,12.394363 10.73568,7.1393759 C 10.42944,6.6615954 9.9174021,6.3937799 9.3898557,6.3805752 Z"
   id="path4-0-4-0-2"
   inkscape:connector-curvature="0" /></svg>