<?xml version="1.0" standalone="yes"?><!DOCTYPE svg PUBLIC "-//W3C//DTD SVG 1.1//EN" "http://www.w3.org/Graphics/SVG/1.1/DTD/svg11.dtd"[
<!ENTITY E14 'stroke:none;opacity:1;fill:rgb(68,154,223);'><!ENTITY E24 'matrix(1.00 0.00 0.00 1.00 324.00 244.00 ) '><!ENTITY E7 'stroke:none;fill-rule:evenodd;opacity:1;fill:rgb(76,76,76);'><!ENTITY E11 'matrix(1.00 0.00 0.00 1.00 0.00 0.00 ) '><!ENTITY E9 'stroke:none;fill-rule:evenodd;opacity:1;fill:rgb(255,255,255);'><!ENTITY E17 'M 5.5001 19.484 10.6493 19.484 16.2743 10.2485 19.3728 10.2485 M 14.6769 17.1481 16.3089 19.4828 19.2202 19.4828 M 5.500199 10.2437 10.7586 10.2437 12.1652 12.8707 '><!ENTITY E3 'stroke:rgb(169,169,169);fill:none;stroke-linecap:butt;stroke-miterlimit:9;opacity:1;stroke-width:2;stroke-linejoin:miter;'><!ENTITY E21 'matrix(1.00 0.00 0.00 1.00 324.00 164.00 ) '><!ENTITY E5 'stroke:none;opacity:1;fill:rgb(91,178,126);'><!ENTITY E16 'M 19.156 22.97 19.156 19.4467 19.156 15.9234 25.2585 19.4467 22.2072 21.2084 z '><!ENTITY E18 'stroke:rgb(255,255,255);fill:none;stroke-linecap:butt;stroke-miterlimit:9;opacity:1;stroke-width:2;stroke-linejoin:miter;'><!ENTITY E1 'stroke:rgb(169,169,169);fill:none;stroke-linecap:butt;stroke-miterlimit:9;opacity:1;stroke-width:1;stroke-linejoin:miter;'><!ENTITY E38 'matrix(1.00 0.00 0.00 1.00 244.00 84.00 ) '><!ENTITY E46 'matrix(1.00 0.00 0.00 1.00 84.00 84.00 ) '><!ENTITY E4 'matrix(1.00 0.00 0.00 1.00 324.00 4.00 ) '><!ENTITY E36 'matrix(1.00 0.00 0.00 1.00 324.00 644.00 ) '><!ENTITY E31 'matrix(1.00 0.00 0.00 1.00 324.00 484.00 ) '><!ENTITY E6 'M 11.40635 5.533117 C 11.08981 5.525167 10.7681 5.608327 10.48144 5.791713 9.717002 6.281695 9.494105 7.298927 9.983113 8.064343 L 13.89604 14.17439 10.51352 18.17604 C 9.927865 18.86897 10.01217 19.90453 10.70607 20.49019 11.01436 20.75113 11.39189 20.87903 11.76687 20.87903 12.23366 20.87903 12.69927 20.68041 13.024 20.29577 L 15.74963 17.07181 19.67576 23.20451 C 19.98986 23.69353 20.51999 23.95954 21.06314 23.95954 21.36563 23.95954 21.66919 23.87682 21.94463 23.70094 22.71101 23.21096 22.93579 22.19465 22.44484 21.4302 L 17.9713 14.44432 21.91443 9.780142 C 22.50009 9.087208 22.41392 8.049756 21.72001 7.464097 21.02708 6.878439 19.99058 6.964616 19.40396 7.658517 L 16.11772 11.5469 12.75217 6.291918 C 12.44595 5.814137 11.93391 5.54632 11.40635 5.533117 z '><!ENTITY E41 'matrix(1.00 0.00 0.00 1.00 164.00 84.00 ) '><!ENTITY E34 'matrix(1.00 0.00 0.00 1.00 324.00 564.00 ) '><!ENTITY E15 'M 19.156 13.888 19.156 10.3647 19.156 6.841399 25.2585 10.3647 22.2072 12.1264 z '><!ENTITY E50 'matrix(1.00 0.00 0.00 1.00 4.00 84.00 ) '><!ENTITY E13 'matrix(1.00 0.00 0.00 1.00 324.00 84.00 ) '><!ENTITY E8 'M 9.389855 6.380575 C 9.07332 6.372625 8.75161 6.455785 8.464944 6.639173 7.700491 7.129154 7.477596 8.146385 7.966622 8.911801 L 11.87955 15.02186 8.497032 19.0235 C 7.911374 19.71643 7.99566 20.75199 8.68956 21.33765 8.997852 21.59859 9.375383 21.72649 9.750364 21.72649 10.21715 21.72649 10.68276 21.52787 11.00748 21.14323 L 13.73314 17.91927 17.65927 24.05198 C 17.97336 24.54099 18.5035 24.807 19.04663 24.807 19.34913 24.807 19.65269 24.72428 19.92812 24.5484 20.69451 24.05842 20.91928 23.04211 20.42833 22.27766 L 15.9548 15.29178 19.89792 10.6276 C 20.48358 9.934668 20.39741 8.897216 19.7035 8.311556 19.01057 7.725897 17.97409 7.812076 17.38746 8.505975 L 14.10121 12.39436 10.73568 7.139376 C 10.42944 6.661595 9.917402 6.39378 9.389855 6.380575 z '><!ENTITY E27 'matrix(1.00 0.00 0.00 1.00 324.00 324.00 ) '><!ENTITY E29 'matrix(1.00 0.00 0.00 1.00 324.00 404.00 ) '><!ENTITY E2 'M 31.179 5.2 C 34.9985 11.0918 34.9814 18.682 31.13552 24.557 '>
]><svg width="401.7672" height="692.8252" id="SvgGdi_output" xmlns="http://www.w3.org/2000/svg"><rect id="background" height="100.00%" style="fill:rgb(255,255,255);" width="100.00%" y="0.00" x="0.00" /><g style="shape-rendering:auto;" id="root_group"><line y1="99.00" style="&E1;" id="67" x2="320.00" y2="99.00" x1="278.00" /><line y1="99.00" style="&E1;" id="68" x2="320.00" y2="179.00" x1="278.00" /><line y1="99.00" style="&E1;" id="69" x2="320.00" y2="259.00" x1="278.00" /><line y1="99.00" style="&E1;" id="70" x2="320.00" y2="339.00" x1="278.00" /><line y1="99.00" style="&E1;" id="71" x2="320.00" y2="419.00" x1="278.00" /><line y1="99.00" style="&E1;" id="72" x2="320.00" y2="499.00" x1="278.00" /><line y1="99.00" style="&E1;" id="73" x2="320.00" y2="579.00" x1="278.00" /><line y1="99.00" style="&E1;" id="74" x2="320.00" y2="659.00" x1="278.00" /><line y1="99.00" style="&E1;" id="75" x2="240.00" y2="99.00" x1="198.00" /><line y1="99.00" style="&E1;" id="76" x2="160.00" y2="99.00" x1="118.00" /><line y1="99.00" style="&E1;" id="77" x2="80.00" y2="99.00" x1="38.00" /><path d="&E2;" style="&E3;" transform="&E4;" id="78" /><ellipse id="79" cy="15.00" cx="15.00" transform="&E4;" rx="15.00" ry="15.00" style="&E5;" /><path d="&E6;" style="&E7;" transform="&E4;" id="80" /><path d="&E8;" style="&E9;" transform="&E4;" id="81" /><text id="82" transform="&E11;" x="324.00" y="39.00" style="stroke:none;clip-path:url(#84_text_clipper);font-family:Microsoft Sans Serif;fill:rgb(0,0,0);font-size:8.25pt;opacity:1;"><tspan dy="8.25pt" id="86">ONI Context</tspan></text><text id="88" transform="&E11;" x="324.00" y="51.45" style="stroke:none;clip-path:url(#90_text_clipper);font-family:Microsoft Sans Serif;fill:rgb(0,0,0);font-size:8.25pt;opacity:1;"><tspan dy="8.25pt" id="92">(riffa,0)</tspan></text><ellipse id="94" cy="15.00" cx="15.00" transform="&E13;" rx="15.00" ry="15.00" style="&E14;" /><path d="&E15;" style="&E9;" transform="&E13;" id="95" /><path d="&E16;" style="&E9;" transform="&E13;" id="96" /><path d="&E17;" style="&E18;" transform="&E13;" id="97" /><text id="98" transform="&E11;" x="324.00" y="119.00" style="stroke:none;clip-path:url(#100_text_clipper);font-family:Microsoft Sans Serif;fill:rgb(0,0,0);font-size:8.25pt;opacity:1;"><tspan dy="8.25pt" id="102">Accelerometer</tspan></text><text id="104" transform="&E11;" x="324.00" y="131.45" style="stroke:none;clip-path:url(#106_text_clipper);font-family:Microsoft Sans Serif;fill:rgb(0,0,0);font-size:8.25pt;opacity:1;"><tspan dy="8.25pt" id="108">Calibrated</tspan></text><ellipse id="110" cy="15.00" cx="15.00" transform="&E21;" rx="15.00" ry="15.00" style="&E14;" /><path d="&E15;" style="&E9;" transform="&E21;" id="111" /><path d="&E16;" style="&E9;" transform="&E21;" id="112" /><path d="&E17;" style="&E18;" transform="&E21;" id="113" /><text id="114" transform="&E11;" x="324.00" y="199.00" style="stroke:none;clip-path:url(#116_text_clipper);font-family:Microsoft Sans Serif;fill:rgb(0,0,0);font-size:8.25pt;opacity:1;"><tspan dy="8.25pt" id="118">Gyroscope</tspan></text><text id="120" transform="&E11;" x="324.00" y="211.45" style="stroke:none;clip-path:url(#122_text_clipper);font-family:Microsoft Sans Serif;fill:rgb(0,0,0);font-size:8.25pt;opacity:1;"><tspan dy="8.25pt" id="124">Calibrated</tspan></text><ellipse id="126" cy="15.00" cx="15.00" transform="&E24;" rx="15.00" ry="15.00" style="&E14;" /><path d="&E15;" style="&E9;" transform="&E24;" id="127" /><path d="&E16;" style="&E9;" transform="&E24;" id="128" /><path d="&E17;" style="&E18;" transform="&E24;" id="129" /><text id="130" transform="&E11;" x="324.00" y="279.00" style="stroke:none;clip-path:url(#132_text_clipper);font-family:Microsoft Sans Serif;fill:rgb(0,0,0);font-size:8.25pt;opacity:1;"><tspan dy="8.25pt" id="134">Magnitometer</tspan></text><text id="136" transform="&E11;" x="324.00" y="291.45" style="stroke:none;clip-path:url(#138_text_clipper);font-family:Microsoft Sans Serif;fill:rgb(0,0,0);font-size:8.25pt;opacity:1;"><tspan dy="8.25pt" id="140">Calibrated</tspan></text><ellipse id="142" cy="15.00" cx="15.00" transform="&E27;" rx="15.00" ry="15.00" style="&E14;" /><path d="&E15;" style="&E9;" transform="&E27;" id="143" /><path d="&E16;" style="&E9;" transform="&E27;" id="144" /><path d="&E17;" style="&E18;" transform="&E27;" id="145" /><text id="146" transform="&E11;" x="324.00" y="359.00" style="stroke:none;clip-path:url(#148_text_clipper);font-family:Microsoft Sans Serif;fill:rgb(0,0,0);font-size:8.25pt;opacity:1;"><tspan dy="8.25pt" id="150">Temperature</tspan></text><ellipse id="152" cy="15.00" cx="15.00" transform="&E29;" rx="15.00" ry="15.00" style="&E14;" /><path d="&E15;" style="&E9;" transform="&E29;" id="153" /><path d="&E16;" style="&E9;" transform="&E29;" id="154" /><path d="&E17;" style="&E18;" transform="&E29;" id="155" /><text id="156" transform="&E11;" x="324.00" y="439.00" style="stroke:none;clip-path:url(#158_text_clipper);font-family:Microsoft Sans Serif;fill:rgb(0,0,0);font-size:8.25pt;opacity:1;"><tspan dy="8.25pt" id="160">Quaternion</tspan></text><ellipse id="162" cy="15.00" cx="15.00" transform="&E31;" rx="15.00" ry="15.00" style="&E14;" /><path d="&E15;" style="&E9;" transform="&E31;" id="163" /><path d="&E16;" style="&E9;" transform="&E31;" id="164" /><path d="&E17;" style="&E18;" transform="&E31;" id="165" /><text id="166" transform="&E11;" x="324.00" y="519.00" style="stroke:none;clip-path:url(#168_text_clipper);font-family:Microsoft Sans Serif;fill:rgb(0,0,0);font-size:8.25pt;opacity:1;"><tspan dy="8.25pt" id="170">Linear</tspan></text><text id="172" transform="&E11;" x="324.00" y="531.45" style="stroke:none;clip-path:url(#174_text_clipper);font-family:Microsoft Sans Serif;fill:rgb(0,0,0);font-size:8.25pt;opacity:1;"><tspan dy="8.25pt" id="176">Acceleration</tspan></text><ellipse id="178" cy="15.00" cx="15.00" transform="&E34;" rx="15.00" ry="15.00" style="&E14;" /><path d="&E15;" style="&E9;" transform="&E34;" id="179" /><path d="&E16;" style="&E9;" transform="&E34;" id="180" /><path d="&E17;" style="&E18;" transform="&E34;" id="181" /><text id="182" transform="&E11;" x="324.00" y="599.00" style="stroke:none;clip-path:url(#184_text_clipper);font-family:Microsoft Sans Serif;fill:rgb(0,0,0);font-size:8.25pt;opacity:1;"><tspan dy="8.25pt" id="186">GravityVector</tspan></text><ellipse id="188" cy="15.00" cx="15.00" transform="&E36;" rx="15.00" ry="15.00" style="&E14;" /><path d="&E15;" style="&E9;" transform="&E36;" id="189" /><path d="&E16;" style="&E9;" transform="&E36;" id="190" /><path d="&E17;" style="&E18;" transform="&E36;" id="191" /><text id="192" transform="&E11;" x="324.00" y="679.00" style="stroke:none;clip-path:url(#194_text_clipper);font-family:Microsoft Sans Serif;fill:rgb(0,0,0);font-size:8.25pt;opacity:1;"><tspan dy="8.25pt" id="196">Euler</tspan></text><ellipse id="198" cy="15.00" cx="15.00" transform="&E38;" rx="15.00" ry="15.00" style="&E14;" /><path d="&E15;" style="&E9;" transform="&E38;" id="199" /><path d="&E16;" style="&E9;" transform="&E38;" id="200" /><path d="&E17;" style="&E18;" transform="&E38;" id="201" /><text id="202" transform="&E11;" x="244.00" y="119.00" style="stroke:none;clip-path:url(#204_text_clipper);font-family:Microsoft Sans Serif;fill:rgb(0,0,0);font-size:8.25pt;opacity:1;"><tspan dy="8.25pt" id="206">Value</tspan></text><path style="&E3;" transform="&E41;" id="208" d="M 10.158 33.2 C 3.4054 31.7591 -1.861 26.4692 -3.271 19.71 " /><ellipse id="209" cy="15.00" cx="15.00" transform="&E41;" rx="15.00" ry="15.00" style="stroke:none;opacity:1;fill:rgb(155,91,179);" /><path style="&E18;" transform="&E41;" id="210" d="M 7.3965 19.566 7.3965 10.8433 " /><path style="&E18;" transform="&E41;" id="211" d="M 11.085 22.137 14.2178 8.273999 " /><ellipse id="212" cy="15.15" cx="20.49" transform="&E41;" rx="4.18" ry="4.18" style="&E18;" /><text id="213" transform="&E11;" x="164.00" y="119.00" style="stroke:none;clip-path:url(#215_text_clipper);font-family:Microsoft Sans Serif;fill:rgb(0,0,0);font-size:8.25pt;opacity:1;"><tspan dy="8.25pt" id="217">CsvWriter</tspan></text><ellipse id="219" cy="15.00" cx="15.00" transform="&E46;" rx="15.00" ry="15.00" style="stroke:none;opacity:1;fill:rgb(238,192,75);" /><path style="&E9;" transform="&E46;" id="220" d="M 12.246 6.0137 12.246 6.019559 C 12.05806 6.020259 11.89471 6.040434 11.76748 6.066434 10.86869 6.352735 10.89631 6.934374 9.87688 7.685534 8.863379 8.264335 8.35338 7.819914 7.61518 8.419914 6.87845 9.015514 7.39292 10.38251 7.08393 10.64841 6.77722 11.18001 5.82553 11.65471 5.65233 12.32611 5.50916 13.18481 6.04191 13.79701 6.02147 14.53311 6.08287 15.14641 5.41127 15.49489 5.5078 15.99211 5.79702 16.80421 6.35438 17.29221 6.6172 17.51751 6.663351 17.54951 6.700028 17.5985 6.714856 17.6015 6.790713 17.792 6.858586 17.98645 6.955086 18.16595 6.949606 18.13995 6.948576 18.11382 6.943367 18.08782 6.998228 18.30542 7.055077 18.52401 7.132816 18.73821 8.683116 22.09901 12.81412 24.68611 17.34182 24.11711 19.54102 23.84771 22.82442 22.33171 24.16602 18.73821 23.22044 19.58671 21.53152 20.32421 20.77732 20.38081 23.33002 19.10511 24.70712 16.93741 24.32031 13.97461 23.79154 15.23341 23.09341 16.20131 22.22071 16.86521 24.07451 13.97551 23.75691 12.48131 22.38478 10.83981 23.36615 13.53881 22.09719 16.53431 19.33208 18.66401 20.45238 18.78541 21.51657 18.51614 22.50198 17.71284 21.01318 19.37354 19.14968 20.20834 17.01368 20.43554 18.03358 21.30254 19.01818 21.69454 19.95898 21.52734 17.34458 22.24884 15.15478 21.45428 12.49018 18.80074 12.3507 19.51504 13.10514 20.62754 13.88278 21.33784 9.373278 19.38284 8.976177 13.29584 14.46872 11.79294 14.47202 11.79294 14.47518 11.79384 14.47848 11.79294 17.74978 13.70674 21.86528 13.58084 22.05078 12.34372 22.50885 10.86082 19.96508 7.805223 16.16208 7.007823 15.4618 6.871123 14.79228 6.817344 14.15428 6.835943 14.16706 6.835943 14.17858 6.836182 14.19139 6.826178 13.58399 6.177278 12.80989 6.011678 12.24609 6.013678 z M 17.17769 9.046878 C 17.72373 9.046878 18.22259 9.543848 18.22259 10.08988 18.22259 10.63598 17.72371 11.13288 17.17769 11.13288 16.63165 11.13288 16.13469 10.63601 16.13469 10.08988 16.13474 9.543879 16.63162 9.046778 17.17769 9.046878 z " /><text id="221" transform="&E11;" x="84.00" y="119.00" style="stroke:none;clip-path:url(#223_text_clipper);font-family:Microsoft Sans Serif;fill:rgb(0,0,0);font-size:8.25pt;opacity:1;"><tspan dy="8.25pt" id="225">Timestamp</tspan></text><path d="&E2;" style="&E3;" transform="&E50;" id="227" /><ellipse id="228" cy="15.00" cx="15.00" transform="&E50;" rx="15.00" ry="15.00" style="&E5;" /><path d="&E6;" style="&E7;" transform="&E50;" id="229" /><path d="&E8;" style="&E9;" transform="&E50;" id="230" /><text id="231" transform="&E11;" x="4.00" y="119.00" style="stroke:none;clip-path:url(#233_text_clipper);font-family:Microsoft Sans Serif;fill:rgb(0,0,0);font-size:8.25pt;opacity:1;"><tspan dy="8.25pt" id="235">BNO055</tspan></text><text id="237" transform="&E11;" x="4.00" y="131.45" style="stroke:none;clip-path:url(#239_text_clipper);font-family:Microsoft Sans Serif;fill:rgb(0,0,0);font-size:8.25pt;opacity:1;"><tspan dy="8.25pt" id="241">Device</tspan></text></g><defs id="clips_hatches_and_gradients"><clipPath id="84_text_clipper"><rect x="324.00" y="39.00" width="65.86" height="27.65" id="85" /></clipPath><clipPath id="90_text_clipper"><rect x="324.00" y="51.45" width="65.86" height="27.65" id="91" /></clipPath><clipPath id="100_text_clipper"><rect x="324.00" y="119.00" width="76.77" height="27.65" id="101" /></clipPath><clipPath id="106_text_clipper"><rect x="324.00" y="131.45" width="76.77" height="27.65" id="107" /></clipPath><clipPath id="116_text_clipper"><rect x="324.00" y="199.00" width="58.45" height="27.65" id="117" /></clipPath><clipPath id="122_text_clipper"><rect x="324.00" y="211.45" width="58.45" height="27.65" id="123" /></clipPath><clipPath id="132_text_clipper"><rect x="324.00" y="279.00" width="72.99" height="27.65" id="133" /></clipPath><clipPath id="138_text_clipper"><rect x="324.00" y="291.45" width="72.99" height="27.65" id="139" /></clipPath><clipPath id="148_text_clipper"><rect x="324.00" y="359.00" width="68.52" height="13.83" id="149" /></clipPath><clipPath id="158_text_clipper"><rect x="324.00" y="439.00" width="59.78" height="13.83" id="159" /></clipPath><clipPath id="168_text_clipper"><rect x="324.00" y="519.00" width="66.14" height="27.65" id="169" /></clipPath><clipPath id="174_text_clipper"><rect x="324.00" y="531.45" width="66.14" height="27.65" id="175" /></clipPath><clipPath id="184_text_clipper"><rect x="324.00" y="599.00" width="72.36" height="13.83" id="185" /></clipPath><clipPath id="194_text_clipper"><rect x="324.00" y="679.00" width="30.18" height="13.83" id="195" /></clipPath><clipPath id="204_text_clipper"><rect x="244.00" y="119.00" width="32.71" height="13.83" id="205" /></clipPath><clipPath id="215_text_clipper"><rect x="164.00" y="119.00" width="53.45" height="13.83" id="216" /></clipPath><clipPath id="223_text_clipper"><rect x="84.00" y="119.00" width="59.76" height="13.83" id="224" /></clipPath><clipPath id="233_text_clipper"><rect x="4.00" y="119.00" width="47.12" height="27.65" id="234" /></clipPath><clipPath id="239_text_clipper"><rect x="4.00" y="131.45" width="47.12" height="27.65" id="240" /></clipPath></defs></svg>